M48
;GenerationSoftware,Autodesk,EAGLE,9.6.2*%
;CreationDate,2021-01-18T15:52:56Z*%
FMAT,2
ICI,OFF
METRIC,TZ,000.000
T16C0.305
T15C0.350
T14C0.600
T13C0.813
T12C0.900
T11C1.016
T10C1.020
T9C1.200
T8C1.295
T7C1.300
T6C1.900
T5C2.794
T4C3.000
T3C3.048
T2C3.099
T1C3.302
%
G90
M71
T1
X9298Y11132
X9298Y36133
T2
X13970Y126365
T3
X27305Y130429
X57150Y67310
X27305Y66929
X73978Y12700
X93980Y66929
X145415Y128143
X3429Y3429
X73978Y130429
X90551Y35179
X90551Y128143
X145415Y35179
X154305Y130429
X144463Y66929
X154305Y3429
X73978Y46609
T4
X7550Y57325
X7550Y44825
X7550Y75325
X7550Y62825
X7550Y93325
X7550Y80825
X7550Y111325
X7550Y98825
T5
X10795Y131191
X7620Y126365
T6
X96516Y14550
X118101Y4423
X128266Y14550
X144141Y14550
X86351Y4423
X102226Y4423
X133976Y4423
X112391Y14550
T7
X9000Y50000
X9000Y104000
X9000Y106150
X9000Y86000
X7050Y103500
X7050Y106650
X9000Y88150
X7050Y85500
X7050Y88650
X9000Y68000
X9000Y70150
X7050Y67500
X7050Y70650
X9000Y52150
X7050Y49500
X7050Y52650
T8
X161544Y12065
X152146Y12065
X156845Y12065
T9
X150595Y21630
X150595Y26630
X163095Y21630
X137060Y128230
X137060Y123230
X134560Y128230
X134560Y123230
X132060Y128230
X132060Y123230
X129560Y128230
X129560Y123230
X127060Y128230
X124560Y128230
X124560Y123230
X163095Y26630
X127060Y123230
X150595Y34965
X150595Y39965
X163095Y39965
X163095Y34965
T10
X33973Y103822
X33973Y106362
X33973Y108902
X33973Y111442
X41593Y106362
X41593Y103822
X41593Y101282
X41593Y98742
X41593Y96202
X33973Y72708
X33973Y75248
X33973Y77788
X33973Y80328
X33973Y82868
X33973Y85408
X33973Y87947
X33973Y90487
X21273Y90487
X21273Y87947
X21273Y85408
X21273Y82868
X21273Y77788
X21273Y75248
X21273Y72708
X54292Y72708
X54292Y75248
X54292Y77788
X54292Y80328
X54292Y82868
X33973Y113982
X54292Y87947
X54292Y90487
X41593Y90487
X41593Y87947
X41593Y85408
X41593Y82868
X41593Y80328
X41593Y77788
X41593Y75248
X41593Y72708
X21273Y113982
X21273Y111442
X21273Y106362
X21273Y103822
X21273Y101282
X21273Y98742
X21273Y80328
X21273Y96202
X54292Y96202
X54292Y98742
X54292Y101282
X54292Y103822
X54292Y106362
X54292Y108902
X54292Y111442
X54292Y113982
X41593Y113982
X41593Y111442
X41593Y108902
X21273Y108902
X33973Y96202
X33973Y98742
X33973Y101282
X54292Y85408
T11
X121285Y102870
X121285Y100330
X118745Y102870
X118745Y100330
X116205Y102870
X116205Y100330
X113665Y102870
X113665Y100330
X111125Y102870
X111125Y100330
X108585Y102870
X108585Y100330
X106045Y102870
X106045Y100330
X126365Y100330
X126365Y102870
X83185Y100330
X83185Y102870
X131445Y39370
X131445Y41910
X131445Y44450
X131445Y46990
X131445Y49530
X131445Y52070
X83185Y27686
X83185Y25146
X131445Y36830
X131445Y34290
X108585Y72390
X108585Y69850
X106045Y72390
X106045Y69850
X103505Y72390
X103505Y69850
X67310Y36830
X67310Y34290
X67310Y31750
X67310Y29210
X67310Y26670
X67310Y24130
X67310Y19050
X67310Y16510
X67310Y13970
X67310Y11430
X67310Y8890
X67310Y6350
X19050Y6350
X19050Y8890
X19050Y11430
X19050Y13970
X19050Y16510
X19050Y19050
X19050Y21590
X19050Y24130
X19050Y27940
X19050Y30480
X19050Y33020
X19050Y35560
X19050Y38100
X19050Y40640
X19050Y43180
X19050Y45720
X145542Y120523
X145288Y117983
X145542Y115443
X145288Y112903
X145542Y110363
X145288Y107823
X145542Y105283
X145288Y102743
X145542Y100203
X145288Y97663
X145542Y95123
X145288Y92583
X145542Y90043
X145288Y87503
X145542Y84963
X145288Y82423
X140653Y115265
X140653Y118161
X10718Y29172
X10718Y26402
X10718Y23632
X10718Y20863
X10718Y18093
X7878Y27782
X7878Y25012
X7878Y22252
X7878Y19483
X39180Y59436
X41720Y59436
X44259Y59436
X83185Y57150
X22288Y59245
X22288Y56705
X131445Y82550
X131445Y85090
X131445Y87630
X131445Y90170
X131445Y92710
X131445Y95250
X131445Y97790
X131445Y80010
X83185Y77470
X83185Y80010
X83185Y82550
X83185Y85090
X83185Y87630
X83185Y90170
X83185Y92710
X83185Y74930
X131445Y59690
X131445Y62230
X131445Y64770
X131445Y67310
X131445Y69850
X131445Y72390
X131445Y74930
X131445Y57150
X83185Y54610
X83185Y59690
X83185Y62230
X83185Y64770
X83185Y67310
X83185Y69850
X83185Y52070
X83185Y32766
X83185Y35306
X83185Y37846
X83185Y40386
X83185Y42926
X83185Y45466
X83185Y48006
X83185Y30226
X103505Y102870
X103505Y100330
X100965Y102870
X100965Y100330
X98425Y102870
X98425Y100330
X95885Y102870
X95885Y100330
X93345Y102870
X93345Y100330
X90805Y102870
X90805Y100330
X88265Y102870
X88265Y100330
X85725Y102870
X85725Y100330
X123825Y102870
X123825Y100330
T12
X103505Y127635
X108585Y127635
X108575Y85090
X107315Y9525
X104823Y9525
X120698Y9525
X123190Y9525
X26710Y15875
X31710Y22225
X26710Y22225
X31710Y15875
X91440Y9525
X52110Y5715
X57110Y5715
X48220Y5715
X43220Y5715
X39330Y5715
X34330Y5715
X88948Y9525
X106045Y127635
X136573Y9525
X139065Y9525
X103515Y85090
T13
X136525Y21590
X36830Y12065
X39370Y12065
X41910Y12065
X46990Y34925
X49530Y34925
X46990Y27305
X49530Y27305
X44450Y12065
X52070Y12065
X46990Y12065
X49530Y12065
X54610Y12065
X54610Y19685
X52070Y19685
X49530Y19685
X46990Y19685
X44450Y19685
X41910Y19685
X39370Y19685
X36830Y19685
X131291Y104929
X136679Y99541
X17930Y66800
X20470Y66800
X61670Y95200
X59130Y95200
X14330Y98200
X16870Y98200
X49670Y67400
X139065Y21590
X91440Y21590
X88900Y21590
X107315Y21590
X104775Y21590
X123190Y21590
X120650Y21590
X47130Y67400
T14
X113665Y119062
X90170Y54292
X26352Y36830
X19685Y52387
X125412Y33973
X100965Y56197
X97155Y111760
X80328Y46355
X93345Y107315
X117475Y110490
X38980Y24130
X90170Y45720
X90170Y57277
X26352Y34290
X93980Y4445
X140653Y101282
X134938Y96520
X86360Y28892
X85408Y26352
X134620Y93980
X140039Y125730
X114300Y41275
X69650Y49647
X51512Y49647
X73660Y51752
X97790Y41275
X124460Y68263
X73025Y40323
X26352Y39370
X73660Y54610
T15
X37800Y72000
X37800Y81600
X74787Y69438
X44762Y69438
X37800Y79000
X25056Y93379
X28200Y75000
X38800Y74400
X41910Y25527
X28532Y93379
X53400Y58400
X65400Y109600
X30270Y93379
X51000Y121230
X25200Y77600
X48000Y120600
X22800Y66800
X44200Y90600
X26794Y93379
X65400Y111600
X48000Y74200
X70295Y75200
X71930Y77660
X73765Y80320
X75200Y82980
X76835Y85440
X38800Y65800
X37700Y64300
T16
X23340Y93379
X89970Y49647
M30