%
M48
M72
T01C0.0236
T02C0.0320
T03C0.0325
T04C0.0354
T05C0.0400
T06C0.0472
T07C0.0748
T08C0.1200
T09C0.1220
T10C0.1300
%
T01
X4113Y9180
X12988Y14555
X12988Y15555
X12988Y16555
X10363Y21680
X3363Y26555
X11488Y28430
X25363Y30555
X25613Y31555
X25863Y32555
X26363Y36555
X26613Y37555
X26863Y38555
X27113Y39555
X29863Y39555
X30113Y38555
X30363Y37555
X30613Y36555
X31113Y32555
X31363Y31555
X31613Y30555
X31863Y29555
X38113Y23605
X38113Y22430
X38113Y20680
X38113Y19055
X41113Y17305
X36613Y12430
X36238Y11430
X31363Y16930
X31363Y19305
X30113Y20680
X31363Y22305
X26988Y20680
X19613Y10555
X28113Y6555
X39613Y2805
X51988Y14430
X47613Y17305
X42363Y23180
X51613Y27930
X55363Y35805
X56113Y35805
X48863Y44555
X47363Y47930
X40863Y45055
X39363Y43305
X28488Y45555
X19163Y40555
X7613Y45805
X3363Y39930
T02
X21113Y14805
X22113Y14805
X22113Y11805
X21113Y11805
X21113Y8805
X20113Y8805
X19113Y8805
X18113Y8805
X17113Y8805
X17113Y5805
X18113Y5805
X19113Y5805
X20113Y5805
X21113Y5805
X22113Y5805
X23113Y5805
X24113Y5805
X24113Y8805
X23113Y8805
X22113Y8805
X37613Y9555
X38613Y9555
X43863Y9555
X44863Y9555
X50113Y9555
X51113Y9555
X56363Y9555
X57363Y9555
X57613Y42430
X54613Y42430
T03
X62513Y5805
X64363Y5805
X66213Y5805
T04
X57363Y4805
X56382Y4805
X51113Y4805
X50132Y4805
X44863Y4805
X43882Y4805
X38613Y4805
X37632Y4805
X25097Y3305
X23129Y3305
X21597Y3305
X19629Y3305
X18097Y3305
X16129Y3305
X15097Y7305
X13129Y7305
X13129Y9805
X15097Y9805
X43367Y34555
X45359Y34555
X59113Y29555
X59113Y28555
X59113Y27555
T05
X54363Y27555
X54363Y26555
X54363Y25555
X54363Y24555
X54363Y23555
X54363Y21555
X54363Y20555
X54363Y19555
X54363Y18555
X54363Y17555
X54363Y16555
X54363Y15555
X54363Y14555
X54363Y28555
X54363Y29555
X54363Y30555
X54363Y32555
X54363Y33555
X54363Y34555
X54363Y35555
X54363Y36555
X54363Y37555
X54363Y38555
X54363Y39555
X52363Y40555
X51363Y40555
X50363Y40555
X49363Y40555
X48363Y40555
X47363Y40555
X46363Y40555
X45363Y40555
X44363Y40555
X43363Y40555
X42363Y40555
X41363Y40555
X40363Y40555
X39363Y40555
X38363Y40555
X37363Y40555
X36363Y40555
X35363Y40555
X35363Y41555
X36363Y41555
X37363Y41555
X38363Y41555
X39363Y41555
X40363Y41555
X41363Y41555
X42363Y41555
X43363Y41555
X44363Y41555
X45363Y41555
X46363Y41555
X47363Y41555
X48363Y41555
X49363Y41555
X50363Y41555
X51363Y41555
X52363Y41555
X59813Y41505
X59913Y40505
X59813Y39505
X59913Y38505
X59813Y37505
X59913Y36505
X59813Y35505
X59913Y34505
X59813Y33505
X59913Y42505
X59813Y43505
X59913Y44505
X59813Y45505
X59913Y46505
X59813Y47505
X59913Y48505
X59933Y49880
X58793Y49880
X35363Y37555
X35363Y36555
X35363Y35555
X35363Y34555
X35363Y33555
X35363Y32555
X35363Y31555
X35363Y30555
X35363Y28555
X35363Y27555
X35363Y26555
X35363Y25555
X35363Y24555
X35363Y23555
X35363Y22555
X35363Y21555
X35363Y19955
X35363Y18955
X35363Y17955
X35363Y16955
X35363Y15955
X35363Y14955
X35363Y13955
X35363Y12955
X35363Y11955
X35363Y10955
X29113Y10555
X29113Y11555
X29113Y12555
X29113Y13555
X29113Y14555
X29113Y15555
X29113Y8555
X29113Y7555
X29113Y6555
X29113Y5555
X29113Y4555
X29113Y3555
X10113Y3555
X10113Y4555
X10113Y5555
X10113Y6555
X10113Y7555
X10113Y8555
X10113Y9555
X10113Y10555
X10113Y12055
X10113Y13055
X10113Y14055
X10113Y15055
X10113Y16055
X10113Y17055
X10113Y18055
X10113Y19055
X6922Y24624
X6922Y25714
X6922Y26805
X6922Y27896
X6922Y28986
X5804Y28439
X5804Y27348
X5804Y26262
X5804Y25171
X11513Y34005
X11513Y35005
X6922Y37374
X6922Y38464
X6922Y39555
X6922Y40646
X6922Y41736
X5804Y41189
X5804Y40098
X5804Y39012
X5804Y37921
X18163Y35080
X19163Y35080
X20163Y35080
X28113Y35055
X29113Y35055
X29113Y34055
X28113Y34055
X28113Y33055
X29113Y33055
X29113Y32055
X28113Y32055
X28113Y31055
X28113Y30055
X29113Y30055
X29113Y31055
X29113Y29055
X28113Y29055
X28113Y28055
X29113Y28055
X29113Y27055
X28113Y27055
X28113Y26055
X29113Y26055
X29113Y36055
X28113Y36055
X28113Y37055
X28113Y38055
X29113Y38055
X29113Y37055
X29113Y39055
X28113Y39055
X28113Y40055
X29113Y40055
X29113Y41055
X28113Y41055
X28113Y42055
X29113Y42055
X29113Y43055
X28113Y43055
X43363Y29555
X44363Y29555
X44363Y28555
X43363Y28555
X45363Y28555
X45363Y29555
X6922Y11486
X6922Y10396
X6922Y9305
X6922Y8214
X6922Y7124
X5804Y7671
X5804Y8762
X5804Y9848
X5804Y10939
T06
X13543Y23055
X15061Y23055
X16313Y23055
X17831Y23055
X19773Y23055
X21291Y23055
X22543Y23055
X24061Y23055
X24183Y46055
X22665Y46055
X21413Y46055
X19895Y46055
X17963Y46055
X16445Y46055
X15183Y46055
X13665Y46055
X51653Y49571
X52637Y49571
X53621Y49571
X54605Y49571
X55590Y49571
X56574Y49571
X56574Y51539
X55590Y51539
X54605Y51539
X53621Y51539
X52637Y51539
X51653Y51539
X61903Y16789
X61903Y14821
X61903Y11539
X61903Y9571
X66824Y9571
X66824Y11539
X66824Y14821
X66824Y16789
T07
X59362Y6784
X55360Y2796
X53112Y6784
X49110Y2796
X46862Y6784
X42860Y2796
X40612Y6784
X36610Y2796
T08
X33363Y6055
X38263Y14905
X33363Y19405
X39613Y27405
X25113Y27555
X13363Y27405
X5113Y18555
X13363Y2405
X59863Y14905
X63363Y2405
X59863Y51505
X63363Y52405
X38263Y51505
X33363Y52405
X27688Y52405
X13363Y52405
T09
X8113Y50805
X6863Y52705
X5613Y50805
T10
X6363Y4384
X6363Y14226
X6363Y21884
X6363Y31726
X6363Y34634
X6363Y44476
M30
