G75*
%MOIN*%
%OFA0B0*%
%FSLAX24Y24*%
%IPPOS*%
%LPD*%
%AMOC8*
5,1,8,0,0,1.08239X$1,22.5*
%
%ADD10C,0.1240*%
%ADD11R,0.0840X0.0840*%
%ADD12C,0.0840*%
%ADD13R,0.0780X0.0780*%
%ADD14C,0.0780*%
%ADD15OC8,0.0780*%
%ADD16C,0.0631*%
%ADD17OC8,0.0520*%
%ADD18C,0.0600*%
%ADD19OC8,0.0700*%
%ADD20R,0.0749X0.0670*%
%ADD21C,0.2040*%
%ADD22C,0.0520*%
%ADD23C,0.0749*%
%ADD24C,0.0740*%
%ADD25C,0.0640*%
%ADD26C,0.0527*%
%ADD27R,0.0670X0.0749*%
%ADD28C,0.1740*%
%ADD29C,0.0890*%
%ADD30R,0.2481X0.2166*%
%ADD31R,0.0670X0.0434*%
%ADD32R,0.0827X0.0827*%
D10*
X013363Y002405D03*
X033363Y006055D03*
X036610Y002796D03*
X040612Y006784D03*
X042860Y002796D03*
X046862Y006784D03*
X049110Y002796D03*
X053112Y006784D03*
X055360Y002796D03*
X059362Y006784D03*
X063363Y002405D03*
X059863Y014905D03*
X039613Y027405D03*
X033363Y019405D03*
X038263Y014905D03*
X025113Y027555D03*
X013363Y027405D03*
X005113Y018555D03*
X038263Y051505D03*
X033363Y052405D03*
X027688Y052405D03*
X013363Y052405D03*
X059863Y051505D03*
X063363Y052405D03*
D11*
X024183Y046055D03*
X021413Y046055D03*
X017963Y046055D03*
X015183Y046055D03*
X016313Y023055D03*
X013543Y023055D03*
X019773Y023055D03*
X022543Y023055D03*
D12*
X021291Y023055D03*
X024061Y023055D03*
X017831Y023055D03*
X015061Y023055D03*
X016445Y046055D03*
X013665Y046055D03*
X019895Y046055D03*
X022665Y046055D03*
D13*
X028113Y036055D03*
X029113Y036055D03*
X029113Y033055D03*
X028113Y033055D03*
X006922Y028986D03*
X006922Y041736D03*
X006922Y011486D03*
D14*
X006922Y010396D03*
X006922Y009305D03*
X006922Y008214D03*
X006922Y007124D03*
X005804Y007671D03*
X005804Y008762D03*
X005804Y009848D03*
X005804Y010939D03*
X010113Y010555D03*
X010113Y009555D03*
X010113Y008555D03*
X010113Y007555D03*
X010113Y006555D03*
X010113Y005555D03*
X010113Y004555D03*
X010113Y003555D03*
X013129Y007305D03*
X015097Y007305D03*
X015097Y009805D03*
X013129Y009805D03*
X010113Y012055D03*
X010113Y013055D03*
X010113Y014055D03*
X010113Y015055D03*
X010113Y016055D03*
X010113Y017055D03*
X010113Y018055D03*
X010113Y019055D03*
X006922Y024624D03*
X006922Y025714D03*
X006922Y026805D03*
X006922Y027896D03*
X005804Y028439D03*
X005804Y027348D03*
X005804Y026262D03*
X005804Y025171D03*
X011513Y034005D03*
X011513Y035005D03*
X006922Y037374D03*
X006922Y038464D03*
X006922Y039555D03*
X006922Y040646D03*
X005804Y041189D03*
X005804Y040098D03*
X005804Y039012D03*
X005804Y037921D03*
X028113Y038055D03*
X028113Y037055D03*
X029113Y037055D03*
X029113Y038055D03*
X029113Y039055D03*
X028113Y039055D03*
X028113Y040055D03*
X029113Y040055D03*
X029113Y041055D03*
X028113Y041055D03*
X028113Y042055D03*
X029113Y042055D03*
X029113Y043055D03*
X028113Y043055D03*
X035363Y041555D03*
X035363Y040555D03*
X035363Y037555D03*
X035363Y036555D03*
X035363Y035555D03*
X035363Y034555D03*
X035363Y033555D03*
X035363Y032555D03*
X035363Y031555D03*
X035363Y030555D03*
X035363Y028555D03*
X035363Y027555D03*
X035363Y026555D03*
X035363Y025555D03*
X035363Y024555D03*
X035363Y023555D03*
X035363Y022555D03*
X035363Y021555D03*
X035363Y019955D03*
X035363Y018955D03*
X035363Y017955D03*
X035363Y016955D03*
X035363Y015955D03*
X035363Y014955D03*
X035363Y013955D03*
X035363Y012955D03*
X035363Y011955D03*
X035363Y010955D03*
X029113Y010555D03*
X029113Y011555D03*
X029113Y012555D03*
X029113Y013555D03*
X029113Y014555D03*
X029113Y015555D03*
X029113Y008555D03*
X029113Y007555D03*
X029113Y006555D03*
X029113Y005555D03*
X029113Y004555D03*
X029113Y003555D03*
X025097Y003305D03*
X023129Y003305D03*
X021597Y003305D03*
X019629Y003305D03*
X018097Y003305D03*
X016129Y003305D03*
X028113Y026055D03*
X029113Y026055D03*
X029113Y027055D03*
X028113Y027055D03*
X028113Y028055D03*
X029113Y028055D03*
X029113Y029055D03*
X028113Y029055D03*
X028113Y030055D03*
X028113Y031055D03*
X029113Y031055D03*
X029113Y030055D03*
X029113Y032055D03*
X028113Y032055D03*
X028113Y034055D03*
X029113Y034055D03*
X029113Y035055D03*
X028113Y035055D03*
X052363Y040555D03*
X052363Y041555D03*
X054363Y039555D03*
X054363Y038555D03*
X054363Y037555D03*
X054363Y036555D03*
X054363Y035555D03*
X054363Y034555D03*
X054363Y033555D03*
X054363Y032555D03*
X054363Y030555D03*
X054363Y029555D03*
X054363Y028555D03*
X054363Y027555D03*
X054363Y026555D03*
X054363Y025555D03*
X054363Y024555D03*
X054363Y023555D03*
X054363Y021555D03*
X054363Y020555D03*
X054363Y019555D03*
X054363Y018555D03*
X054363Y017555D03*
X054363Y016555D03*
X054363Y015555D03*
X054363Y014555D03*
X059813Y033505D03*
X059913Y034505D03*
X059813Y035505D03*
X059913Y036505D03*
X059813Y037505D03*
X059913Y038505D03*
X059813Y039505D03*
X059913Y040505D03*
X059813Y041505D03*
X059913Y042505D03*
X059813Y043505D03*
X059913Y044505D03*
X059813Y045505D03*
X059913Y046505D03*
X059813Y047505D03*
X059913Y048505D03*
X059933Y049880D03*
X058793Y049880D03*
D15*
X051363Y041555D03*
X050363Y041555D03*
X049363Y041555D03*
X048363Y041555D03*
X047363Y041555D03*
X046363Y041555D03*
X045363Y041555D03*
X044363Y041555D03*
X043363Y041555D03*
X042363Y041555D03*
X041363Y041555D03*
X040363Y041555D03*
X039363Y041555D03*
X038363Y041555D03*
X037363Y041555D03*
X036363Y041555D03*
X036363Y040555D03*
X037363Y040555D03*
X038363Y040555D03*
X039363Y040555D03*
X040363Y040555D03*
X041363Y040555D03*
X042363Y040555D03*
X043363Y040555D03*
X044363Y040555D03*
X045363Y040555D03*
X046363Y040555D03*
X047363Y040555D03*
X048363Y040555D03*
X049363Y040555D03*
X050363Y040555D03*
X051363Y040555D03*
X045363Y029555D03*
X044363Y029555D03*
X043363Y029555D03*
X043363Y028555D03*
X044363Y028555D03*
X045363Y028555D03*
D16*
X045359Y034555D03*
X043367Y034555D03*
D17*
X054613Y042430D03*
X057613Y042430D03*
D18*
X057363Y005085D02*
X057363Y004525D01*
X056382Y004525D02*
X056382Y005085D01*
X051113Y005085D02*
X051113Y004525D01*
X050132Y004525D02*
X050132Y005085D01*
X044863Y005085D02*
X044863Y004525D01*
X043882Y004525D02*
X043882Y005085D01*
X038613Y005085D02*
X038613Y004525D01*
X037632Y004525D02*
X037632Y005085D01*
D19*
X037613Y009555D03*
X038613Y009555D03*
X043863Y009555D03*
X044863Y009555D03*
X050113Y009555D03*
X051113Y009555D03*
X056363Y009555D03*
X057363Y009555D03*
X022113Y011805D03*
X021113Y011805D03*
X021113Y014805D03*
X022113Y014805D03*
D20*
X046363Y021004D03*
X046363Y022106D03*
X048863Y022106D03*
X048863Y021004D03*
X051113Y021004D03*
X051113Y022106D03*
X056863Y022106D03*
X056863Y021004D03*
X057363Y007356D03*
X057363Y006254D03*
D21*
X006363Y004384D03*
X006363Y014226D03*
X006363Y021884D03*
X006363Y031726D03*
X006363Y034634D03*
X006363Y044476D03*
D22*
X017113Y009045D02*
X017113Y008565D01*
X018113Y008565D02*
X018113Y009045D01*
X019113Y009045D02*
X019113Y008565D01*
X020113Y008565D02*
X020113Y009045D01*
X021113Y009045D02*
X021113Y008565D01*
X022113Y008565D02*
X022113Y009045D01*
X023113Y009045D02*
X023113Y008565D01*
X024113Y008565D02*
X024113Y009045D01*
X024113Y006045D02*
X024113Y005565D01*
X023113Y005565D02*
X023113Y006045D01*
X022113Y006045D02*
X022113Y005565D01*
X021113Y005565D02*
X021113Y006045D01*
X020113Y006045D02*
X020113Y005565D01*
X019113Y005565D02*
X019113Y006045D01*
X018113Y006045D02*
X018113Y005565D01*
X017113Y005565D02*
X017113Y006045D01*
D23*
X051653Y049216D02*
X051653Y049925D01*
X052637Y049925D02*
X052637Y049216D01*
X053621Y049216D02*
X053621Y049925D01*
X054605Y049925D02*
X054605Y049216D01*
X055590Y049216D02*
X055590Y049925D01*
X056574Y049925D02*
X056574Y049216D01*
X056574Y051185D02*
X056574Y051894D01*
X055590Y051894D02*
X055590Y051185D01*
X054605Y051185D02*
X054605Y051894D01*
X053621Y051894D02*
X053621Y051185D01*
X052637Y051185D02*
X052637Y051894D01*
X051653Y051894D02*
X051653Y051185D01*
D24*
X059113Y029555D03*
X059113Y028555D03*
X059113Y027555D03*
D25*
X020163Y034780D02*
X020163Y035380D01*
X019163Y035380D02*
X019163Y034780D01*
X018163Y034780D02*
X018163Y035380D01*
D26*
X062513Y006049D02*
X062513Y005561D01*
X064363Y005561D02*
X064363Y006049D01*
X066213Y006049D02*
X066213Y005561D01*
D27*
X052164Y003055D03*
X051062Y003055D03*
X046414Y003555D03*
X045312Y003555D03*
X038664Y006805D03*
X037562Y006805D03*
X050812Y043305D03*
X051914Y043305D03*
X051914Y044555D03*
X050812Y044555D03*
X050812Y045805D03*
X051914Y045805D03*
X048664Y051305D03*
X047562Y051305D03*
X023414Y050955D03*
X022312Y050955D03*
D28*
X009813Y050805D02*
X008113Y050805D01*
X008563Y052705D02*
X006863Y052705D01*
X005613Y050805D02*
X005613Y049105D01*
D29*
X061903Y016789D03*
X061903Y014821D03*
X061903Y011539D03*
X061903Y009571D03*
X066824Y009571D03*
X066824Y011539D03*
X066824Y014821D03*
X066824Y016789D03*
D30*
X017629Y050055D03*
D31*
X020503Y049157D03*
X020503Y050953D03*
D32*
X022738Y049180D03*
X018863Y047305D03*
X011488Y037680D03*
X021613Y031180D03*
M02*
