G04 EAGLE Gerber RS-274X export*
G75*
%MOMM*%
%FSLAX34Y34*%
%LPD*%
%IN*%
%IPPOS*%
%AMOC8*
5,1,8,0,0,1.08239X$1,22.5*%
G01*
%ADD10C,0.254000*%


D10*
X-6350Y-3175D02*
X1663500Y-3175D01*
X1663500Y1342900D01*
X-6350Y1342900D01*
X-6350Y-3175D01*
X72950Y1249650D02*
X82950Y1249650D01*
X82950Y1277650D01*
X72950Y1277650D01*
X72950Y1249650D01*
X133950Y1247150D02*
X143950Y1247150D01*
X143950Y1280150D01*
X133950Y1280150D01*
X133950Y1247150D01*
X93950Y1306650D02*
X121950Y1306650D01*
X121950Y1316650D01*
X93950Y1316650D01*
X93950Y1306650D01*
X1469390Y351246D02*
X1469312Y350160D01*
X1469157Y349082D01*
X1468926Y348019D01*
X1468619Y346974D01*
X1468239Y345954D01*
X1467787Y344964D01*
X1467265Y344009D01*
X1466676Y343093D01*
X1466024Y342221D01*
X1465311Y341399D01*
X1464541Y340629D01*
X1463719Y339916D01*
X1462847Y339264D01*
X1461931Y338675D01*
X1460976Y338153D01*
X1459986Y337701D01*
X1458966Y337321D01*
X1457921Y337014D01*
X1456858Y336783D01*
X1455780Y336628D01*
X1454694Y336550D01*
X1453606Y336550D01*
X1452520Y336628D01*
X1451442Y336783D01*
X1450379Y337014D01*
X1449334Y337321D01*
X1448314Y337701D01*
X1447324Y338153D01*
X1446369Y338675D01*
X1445453Y339264D01*
X1444581Y339916D01*
X1443759Y340629D01*
X1442989Y341399D01*
X1442276Y342221D01*
X1441624Y343093D01*
X1441035Y344009D01*
X1440513Y344964D01*
X1440061Y345954D01*
X1439681Y346974D01*
X1439374Y348019D01*
X1439143Y349082D01*
X1438988Y350160D01*
X1438910Y351246D01*
X1438910Y352334D01*
X1438988Y353420D01*
X1439143Y354498D01*
X1439374Y355561D01*
X1439681Y356606D01*
X1440061Y357626D01*
X1440513Y358616D01*
X1441035Y359571D01*
X1441624Y360487D01*
X1442276Y361359D01*
X1442989Y362181D01*
X1443759Y362951D01*
X1444581Y363664D01*
X1445453Y364316D01*
X1446369Y364905D01*
X1447324Y365427D01*
X1448314Y365879D01*
X1449334Y366259D01*
X1450379Y366566D01*
X1451442Y366797D01*
X1452520Y366952D01*
X1453606Y367030D01*
X1454694Y367030D01*
X1455780Y366952D01*
X1456858Y366797D01*
X1457921Y366566D01*
X1458966Y366259D01*
X1459986Y365879D01*
X1460976Y365427D01*
X1461931Y364905D01*
X1462847Y364316D01*
X1463719Y363664D01*
X1464541Y362951D01*
X1465311Y362181D01*
X1466024Y361359D01*
X1466676Y360487D01*
X1467265Y359571D01*
X1467787Y358616D01*
X1468239Y357626D01*
X1468619Y356606D01*
X1468926Y355561D01*
X1469157Y354498D01*
X1469312Y353420D01*
X1469390Y352334D01*
X1469390Y351246D01*
X920750Y1280886D02*
X920672Y1279800D01*
X920517Y1278722D01*
X920286Y1277659D01*
X919979Y1276614D01*
X919599Y1275594D01*
X919147Y1274604D01*
X918625Y1273649D01*
X918036Y1272733D01*
X917384Y1271861D01*
X916671Y1271039D01*
X915901Y1270269D01*
X915079Y1269556D01*
X914207Y1268904D01*
X913291Y1268315D01*
X912336Y1267793D01*
X911346Y1267341D01*
X910326Y1266961D01*
X909281Y1266654D01*
X908218Y1266423D01*
X907140Y1266268D01*
X906054Y1266190D01*
X904966Y1266190D01*
X903880Y1266268D01*
X902802Y1266423D01*
X901739Y1266654D01*
X900694Y1266961D01*
X899674Y1267341D01*
X898684Y1267793D01*
X897729Y1268315D01*
X896813Y1268904D01*
X895941Y1269556D01*
X895119Y1270269D01*
X894349Y1271039D01*
X893636Y1271861D01*
X892984Y1272733D01*
X892395Y1273649D01*
X891873Y1274604D01*
X891421Y1275594D01*
X891041Y1276614D01*
X890734Y1277659D01*
X890503Y1278722D01*
X890348Y1279800D01*
X890270Y1280886D01*
X890270Y1281974D01*
X890348Y1283060D01*
X890503Y1284138D01*
X890734Y1285201D01*
X891041Y1286246D01*
X891421Y1287266D01*
X891873Y1288256D01*
X892395Y1289211D01*
X892984Y1290127D01*
X893636Y1290999D01*
X894349Y1291821D01*
X895119Y1292591D01*
X895941Y1293304D01*
X896813Y1293956D01*
X897729Y1294545D01*
X898684Y1295067D01*
X899674Y1295519D01*
X900694Y1295899D01*
X901739Y1296206D01*
X902802Y1296437D01*
X903880Y1296592D01*
X904966Y1296670D01*
X906054Y1296670D01*
X907140Y1296592D01*
X908218Y1296437D01*
X909281Y1296206D01*
X910326Y1295899D01*
X911346Y1295519D01*
X912336Y1295067D01*
X913291Y1294545D01*
X914207Y1293956D01*
X915079Y1293304D01*
X915901Y1292591D01*
X916671Y1291821D01*
X917384Y1290999D01*
X918036Y1290127D01*
X918625Y1289211D01*
X919147Y1288256D01*
X919599Y1287266D01*
X919979Y1286246D01*
X920286Y1285201D01*
X920517Y1284138D01*
X920672Y1283060D01*
X920750Y1281974D01*
X920750Y1280886D01*
X920750Y351246D02*
X920672Y350160D01*
X920517Y349082D01*
X920286Y348019D01*
X919979Y346974D01*
X919599Y345954D01*
X919147Y344964D01*
X918625Y344009D01*
X918036Y343093D01*
X917384Y342221D01*
X916671Y341399D01*
X915901Y340629D01*
X915079Y339916D01*
X914207Y339264D01*
X913291Y338675D01*
X912336Y338153D01*
X911346Y337701D01*
X910326Y337321D01*
X909281Y337014D01*
X908218Y336783D01*
X907140Y336628D01*
X906054Y336550D01*
X904966Y336550D01*
X903880Y336628D01*
X902802Y336783D01*
X901739Y337014D01*
X900694Y337321D01*
X899674Y337701D01*
X898684Y338153D01*
X897729Y338675D01*
X896813Y339264D01*
X895941Y339916D01*
X895119Y340629D01*
X894349Y341399D01*
X893636Y342221D01*
X892984Y343093D01*
X892395Y344009D01*
X891873Y344964D01*
X891421Y345954D01*
X891041Y346974D01*
X890734Y348019D01*
X890503Y349082D01*
X890348Y350160D01*
X890270Y351246D01*
X890270Y352334D01*
X890348Y353420D01*
X890503Y354498D01*
X890734Y355561D01*
X891041Y356606D01*
X891421Y357626D01*
X891873Y358616D01*
X892395Y359571D01*
X892984Y360487D01*
X893636Y361359D01*
X894349Y362181D01*
X895119Y362951D01*
X895941Y363664D01*
X896813Y364316D01*
X897729Y364905D01*
X898684Y365427D01*
X899674Y365879D01*
X900694Y366259D01*
X901739Y366566D01*
X902802Y366797D01*
X903880Y366952D01*
X904966Y367030D01*
X906054Y367030D01*
X907140Y366952D01*
X908218Y366797D01*
X909281Y366566D01*
X910326Y366259D01*
X911346Y365879D01*
X912336Y365427D01*
X913291Y364905D01*
X914207Y364316D01*
X915079Y363664D01*
X915901Y362951D01*
X916671Y362181D01*
X917384Y361359D01*
X918036Y360487D01*
X918625Y359571D01*
X919147Y358616D01*
X919599Y357626D01*
X919979Y356606D01*
X920286Y355561D01*
X920517Y354498D01*
X920672Y353420D01*
X920750Y352334D01*
X920750Y351246D01*
X1469390Y1280886D02*
X1469312Y1279800D01*
X1469157Y1278722D01*
X1468926Y1277659D01*
X1468619Y1276614D01*
X1468239Y1275594D01*
X1467787Y1274604D01*
X1467265Y1273649D01*
X1466676Y1272733D01*
X1466024Y1271861D01*
X1465311Y1271039D01*
X1464541Y1270269D01*
X1463719Y1269556D01*
X1462847Y1268904D01*
X1461931Y1268315D01*
X1460976Y1267793D01*
X1459986Y1267341D01*
X1458966Y1266961D01*
X1457921Y1266654D01*
X1456858Y1266423D01*
X1455780Y1266268D01*
X1454694Y1266190D01*
X1453606Y1266190D01*
X1452520Y1266268D01*
X1451442Y1266423D01*
X1450379Y1266654D01*
X1449334Y1266961D01*
X1448314Y1267341D01*
X1447324Y1267793D01*
X1446369Y1268315D01*
X1445453Y1268904D01*
X1444581Y1269556D01*
X1443759Y1270269D01*
X1442989Y1271039D01*
X1442276Y1271861D01*
X1441624Y1272733D01*
X1441035Y1273649D01*
X1440513Y1274604D01*
X1440061Y1275594D01*
X1439681Y1276614D01*
X1439374Y1277659D01*
X1439143Y1278722D01*
X1438988Y1279800D01*
X1438910Y1280886D01*
X1438910Y1281974D01*
X1438988Y1283060D01*
X1439143Y1284138D01*
X1439374Y1285201D01*
X1439681Y1286246D01*
X1440061Y1287266D01*
X1440513Y1288256D01*
X1441035Y1289211D01*
X1441624Y1290127D01*
X1442276Y1290999D01*
X1442989Y1291821D01*
X1443759Y1292591D01*
X1444581Y1293304D01*
X1445453Y1293956D01*
X1446369Y1294545D01*
X1447324Y1295067D01*
X1448314Y1295519D01*
X1449334Y1295899D01*
X1450379Y1296206D01*
X1451442Y1296437D01*
X1452520Y1296592D01*
X1453606Y1296670D01*
X1454694Y1296670D01*
X1455780Y1296592D01*
X1456858Y1296437D01*
X1457921Y1296206D01*
X1458966Y1295899D01*
X1459986Y1295519D01*
X1460976Y1295067D01*
X1461931Y1294545D01*
X1462847Y1293956D01*
X1463719Y1293304D01*
X1464541Y1292591D01*
X1465311Y1291821D01*
X1466024Y1290999D01*
X1466676Y1290127D01*
X1467265Y1289211D01*
X1467787Y1288256D01*
X1468239Y1287266D01*
X1468619Y1286246D01*
X1468926Y1285201D01*
X1469157Y1284138D01*
X1469312Y1283060D01*
X1469390Y1281974D01*
X1469390Y1280886D01*
X1558290Y33746D02*
X1558212Y32660D01*
X1558057Y31582D01*
X1557826Y30519D01*
X1557519Y29474D01*
X1557139Y28454D01*
X1556687Y27464D01*
X1556165Y26509D01*
X1555576Y25593D01*
X1554924Y24721D01*
X1554211Y23899D01*
X1553441Y23129D01*
X1552619Y22416D01*
X1551747Y21764D01*
X1550831Y21175D01*
X1549876Y20653D01*
X1548886Y20201D01*
X1547866Y19821D01*
X1546821Y19514D01*
X1545758Y19283D01*
X1544680Y19128D01*
X1543594Y19050D01*
X1542506Y19050D01*
X1541420Y19128D01*
X1540342Y19283D01*
X1539279Y19514D01*
X1538234Y19821D01*
X1537214Y20201D01*
X1536224Y20653D01*
X1535269Y21175D01*
X1534353Y21764D01*
X1533481Y22416D01*
X1532659Y23129D01*
X1531889Y23899D01*
X1531176Y24721D01*
X1530524Y25593D01*
X1529935Y26509D01*
X1529413Y27464D01*
X1528961Y28454D01*
X1528581Y29474D01*
X1528274Y30519D01*
X1528043Y31582D01*
X1527888Y32660D01*
X1527810Y33746D01*
X1527810Y34834D01*
X1527888Y35920D01*
X1528043Y36998D01*
X1528274Y38061D01*
X1528581Y39106D01*
X1528961Y40126D01*
X1529413Y41116D01*
X1529935Y42071D01*
X1530524Y42987D01*
X1531176Y43859D01*
X1531889Y44681D01*
X1532659Y45451D01*
X1533481Y46164D01*
X1534353Y46816D01*
X1535269Y47405D01*
X1536224Y47927D01*
X1537214Y48379D01*
X1538234Y48759D01*
X1539279Y49066D01*
X1540342Y49297D01*
X1541420Y49452D01*
X1542506Y49530D01*
X1543594Y49530D01*
X1544680Y49452D01*
X1545758Y49297D01*
X1546821Y49066D01*
X1547866Y48759D01*
X1548886Y48379D01*
X1549876Y47927D01*
X1550831Y47405D01*
X1551747Y46816D01*
X1552619Y46164D01*
X1553441Y45451D01*
X1554211Y44681D01*
X1554924Y43859D01*
X1555576Y42987D01*
X1556165Y42071D01*
X1556687Y41116D01*
X1557139Y40126D01*
X1557519Y39106D01*
X1557826Y38061D01*
X1558057Y36998D01*
X1558212Y35920D01*
X1558290Y34834D01*
X1558290Y33746D01*
X755015Y126456D02*
X754937Y125370D01*
X754782Y124292D01*
X754551Y123229D01*
X754244Y122184D01*
X753864Y121164D01*
X753412Y120174D01*
X752890Y119219D01*
X752301Y118303D01*
X751649Y117431D01*
X750936Y116609D01*
X750166Y115839D01*
X749344Y115126D01*
X748472Y114474D01*
X747556Y113885D01*
X746601Y113363D01*
X745611Y112911D01*
X744591Y112531D01*
X743546Y112224D01*
X742483Y111993D01*
X741405Y111838D01*
X740319Y111760D01*
X739231Y111760D01*
X738145Y111838D01*
X737067Y111993D01*
X736004Y112224D01*
X734959Y112531D01*
X733939Y112911D01*
X732949Y113363D01*
X731994Y113885D01*
X731078Y114474D01*
X730206Y115126D01*
X729384Y115839D01*
X728614Y116609D01*
X727901Y117431D01*
X727249Y118303D01*
X726660Y119219D01*
X726138Y120174D01*
X725686Y121164D01*
X725306Y122184D01*
X724999Y123229D01*
X724768Y124292D01*
X724613Y125370D01*
X724535Y126456D01*
X724535Y127544D01*
X724613Y128630D01*
X724768Y129708D01*
X724999Y130771D01*
X725306Y131816D01*
X725686Y132836D01*
X726138Y133826D01*
X726660Y134781D01*
X727249Y135697D01*
X727901Y136569D01*
X728614Y137391D01*
X729384Y138161D01*
X730206Y138874D01*
X731078Y139526D01*
X731994Y140115D01*
X732949Y140637D01*
X733939Y141089D01*
X734959Y141469D01*
X736004Y141776D01*
X737067Y142007D01*
X738145Y142162D01*
X739231Y142240D01*
X740319Y142240D01*
X741405Y142162D01*
X742483Y142007D01*
X743546Y141776D01*
X744591Y141469D01*
X745611Y141089D01*
X746601Y140637D01*
X747556Y140115D01*
X748472Y139526D01*
X749344Y138874D01*
X750166Y138161D01*
X750936Y137391D01*
X751649Y136569D01*
X752301Y135697D01*
X752890Y134781D01*
X753412Y133826D01*
X753864Y132836D01*
X754244Y131816D01*
X754551Y130771D01*
X754782Y129708D01*
X754937Y128630D01*
X755015Y127544D01*
X755015Y126456D01*
X288290Y668746D02*
X288212Y667660D01*
X288057Y666582D01*
X287826Y665519D01*
X287519Y664474D01*
X287139Y663454D01*
X286687Y662464D01*
X286165Y661509D01*
X285576Y660593D01*
X284924Y659721D01*
X284211Y658899D01*
X283441Y658129D01*
X282619Y657416D01*
X281747Y656764D01*
X280831Y656175D01*
X279876Y655653D01*
X278886Y655201D01*
X277866Y654821D01*
X276821Y654514D01*
X275758Y654283D01*
X274680Y654128D01*
X273594Y654050D01*
X272506Y654050D01*
X271420Y654128D01*
X270342Y654283D01*
X269279Y654514D01*
X268234Y654821D01*
X267214Y655201D01*
X266224Y655653D01*
X265269Y656175D01*
X264353Y656764D01*
X263481Y657416D01*
X262659Y658129D01*
X261889Y658899D01*
X261176Y659721D01*
X260524Y660593D01*
X259935Y661509D01*
X259413Y662464D01*
X258961Y663454D01*
X258581Y664474D01*
X258274Y665519D01*
X258043Y666582D01*
X257888Y667660D01*
X257810Y668746D01*
X257810Y669834D01*
X257888Y670920D01*
X258043Y671998D01*
X258274Y673061D01*
X258581Y674106D01*
X258961Y675126D01*
X259413Y676116D01*
X259935Y677071D01*
X260524Y677987D01*
X261176Y678859D01*
X261889Y679681D01*
X262659Y680451D01*
X263481Y681164D01*
X264353Y681816D01*
X265269Y682405D01*
X266224Y682927D01*
X267214Y683379D01*
X268234Y683759D01*
X269279Y684066D01*
X270342Y684297D01*
X271420Y684452D01*
X272506Y684530D01*
X273594Y684530D01*
X274680Y684452D01*
X275758Y684297D01*
X276821Y684066D01*
X277866Y683759D01*
X278886Y683379D01*
X279876Y682927D01*
X280831Y682405D01*
X281747Y681816D01*
X282619Y681164D01*
X283441Y680451D01*
X284211Y679681D01*
X284924Y678859D01*
X285576Y677987D01*
X286165Y677071D01*
X286687Y676116D01*
X287139Y675126D01*
X287519Y674106D01*
X287826Y673061D01*
X288057Y671998D01*
X288212Y670920D01*
X288290Y669834D01*
X288290Y668746D01*
X49530Y33746D02*
X49452Y32660D01*
X49297Y31582D01*
X49066Y30519D01*
X48759Y29474D01*
X48379Y28454D01*
X47927Y27464D01*
X47405Y26509D01*
X46816Y25593D01*
X46164Y24721D01*
X45451Y23899D01*
X44681Y23129D01*
X43859Y22416D01*
X42987Y21764D01*
X42071Y21175D01*
X41116Y20653D01*
X40126Y20201D01*
X39106Y19821D01*
X38061Y19514D01*
X36998Y19283D01*
X35920Y19128D01*
X34834Y19050D01*
X33746Y19050D01*
X32660Y19128D01*
X31582Y19283D01*
X30519Y19514D01*
X29474Y19821D01*
X28454Y20201D01*
X27464Y20653D01*
X26509Y21175D01*
X25593Y21764D01*
X24721Y22416D01*
X23899Y23129D01*
X23129Y23899D01*
X22416Y24721D01*
X21764Y25593D01*
X21175Y26509D01*
X20653Y27464D01*
X20201Y28454D01*
X19821Y29474D01*
X19514Y30519D01*
X19283Y31582D01*
X19128Y32660D01*
X19050Y33746D01*
X19050Y34834D01*
X19128Y35920D01*
X19283Y36998D01*
X19514Y38061D01*
X19821Y39106D01*
X20201Y40126D01*
X20653Y41116D01*
X21175Y42071D01*
X21764Y42987D01*
X22416Y43859D01*
X23129Y44681D01*
X23899Y45451D01*
X24721Y46164D01*
X25593Y46816D01*
X26509Y47405D01*
X27464Y47927D01*
X28454Y48379D01*
X29474Y48759D01*
X30519Y49066D01*
X31582Y49297D01*
X32660Y49452D01*
X33746Y49530D01*
X34834Y49530D01*
X35920Y49452D01*
X36998Y49297D01*
X38061Y49066D01*
X39106Y48759D01*
X40126Y48379D01*
X41116Y47927D01*
X42071Y47405D01*
X42987Y46816D01*
X43859Y46164D01*
X44681Y45451D01*
X45451Y44681D01*
X46164Y43859D01*
X46816Y42987D01*
X47405Y42071D01*
X47927Y41116D01*
X48379Y40126D01*
X48759Y39106D01*
X49066Y38061D01*
X49297Y36998D01*
X49452Y35920D01*
X49530Y34834D01*
X49530Y33746D01*
X288290Y1303746D02*
X288212Y1302660D01*
X288057Y1301582D01*
X287826Y1300519D01*
X287519Y1299474D01*
X287139Y1298454D01*
X286687Y1297464D01*
X286165Y1296509D01*
X285576Y1295593D01*
X284924Y1294721D01*
X284211Y1293899D01*
X283441Y1293129D01*
X282619Y1292416D01*
X281747Y1291764D01*
X280831Y1291175D01*
X279876Y1290653D01*
X278886Y1290201D01*
X277866Y1289821D01*
X276821Y1289514D01*
X275758Y1289283D01*
X274680Y1289128D01*
X273594Y1289050D01*
X272506Y1289050D01*
X271420Y1289128D01*
X270342Y1289283D01*
X269279Y1289514D01*
X268234Y1289821D01*
X267214Y1290201D01*
X266224Y1290653D01*
X265269Y1291175D01*
X264353Y1291764D01*
X263481Y1292416D01*
X262659Y1293129D01*
X261889Y1293899D01*
X261176Y1294721D01*
X260524Y1295593D01*
X259935Y1296509D01*
X259413Y1297464D01*
X258961Y1298454D01*
X258581Y1299474D01*
X258274Y1300519D01*
X258043Y1301582D01*
X257888Y1302660D01*
X257810Y1303746D01*
X257810Y1304834D01*
X257888Y1305920D01*
X258043Y1306998D01*
X258274Y1308061D01*
X258581Y1309106D01*
X258961Y1310126D01*
X259413Y1311116D01*
X259935Y1312071D01*
X260524Y1312987D01*
X261176Y1313859D01*
X261889Y1314681D01*
X262659Y1315451D01*
X263481Y1316164D01*
X264353Y1316816D01*
X265269Y1317405D01*
X266224Y1317927D01*
X267214Y1318379D01*
X268234Y1318759D01*
X269279Y1319066D01*
X270342Y1319297D01*
X271420Y1319452D01*
X272506Y1319530D01*
X273594Y1319530D01*
X274680Y1319452D01*
X275758Y1319297D01*
X276821Y1319066D01*
X277866Y1318759D01*
X278886Y1318379D01*
X279876Y1317927D01*
X280831Y1317405D01*
X281747Y1316816D01*
X282619Y1316164D01*
X283441Y1315451D01*
X284211Y1314681D01*
X284924Y1313859D01*
X285576Y1312987D01*
X286165Y1312071D01*
X286687Y1311116D01*
X287139Y1310126D01*
X287519Y1309106D01*
X287826Y1308061D01*
X288057Y1306998D01*
X288212Y1305920D01*
X288290Y1304834D01*
X288290Y1303746D01*
X755015Y1303746D02*
X754937Y1302660D01*
X754782Y1301582D01*
X754551Y1300519D01*
X754244Y1299474D01*
X753864Y1298454D01*
X753412Y1297464D01*
X752890Y1296509D01*
X752301Y1295593D01*
X751649Y1294721D01*
X750936Y1293899D01*
X750166Y1293129D01*
X749344Y1292416D01*
X748472Y1291764D01*
X747556Y1291175D01*
X746601Y1290653D01*
X745611Y1290201D01*
X744591Y1289821D01*
X743546Y1289514D01*
X742483Y1289283D01*
X741405Y1289128D01*
X740319Y1289050D01*
X739231Y1289050D01*
X738145Y1289128D01*
X737067Y1289283D01*
X736004Y1289514D01*
X734959Y1289821D01*
X733939Y1290201D01*
X732949Y1290653D01*
X731994Y1291175D01*
X731078Y1291764D01*
X730206Y1292416D01*
X729384Y1293129D01*
X728614Y1293899D01*
X727901Y1294721D01*
X727249Y1295593D01*
X726660Y1296509D01*
X726138Y1297464D01*
X725686Y1298454D01*
X725306Y1299474D01*
X724999Y1300519D01*
X724768Y1301582D01*
X724613Y1302660D01*
X724535Y1303746D01*
X724535Y1304834D01*
X724613Y1305920D01*
X724768Y1306998D01*
X724999Y1308061D01*
X725306Y1309106D01*
X725686Y1310126D01*
X726138Y1311116D01*
X726660Y1312071D01*
X727249Y1312987D01*
X727901Y1313859D01*
X728614Y1314681D01*
X729384Y1315451D01*
X730206Y1316164D01*
X731078Y1316816D01*
X731994Y1317405D01*
X732949Y1317927D01*
X733939Y1318379D01*
X734959Y1318759D01*
X736004Y1319066D01*
X737067Y1319297D01*
X738145Y1319452D01*
X739231Y1319530D01*
X740319Y1319530D01*
X741405Y1319452D01*
X742483Y1319297D01*
X743546Y1319066D01*
X744591Y1318759D01*
X745611Y1318379D01*
X746601Y1317927D01*
X747556Y1317405D01*
X748472Y1316816D01*
X749344Y1316164D01*
X750166Y1315451D01*
X750936Y1314681D01*
X751649Y1313859D01*
X752301Y1312987D01*
X752890Y1312071D01*
X753412Y1311116D01*
X753864Y1310126D01*
X754244Y1309106D01*
X754551Y1308061D01*
X754782Y1306998D01*
X754937Y1305920D01*
X755015Y1304834D01*
X755015Y1303746D01*
X1558290Y1303746D02*
X1558212Y1302660D01*
X1558057Y1301582D01*
X1557826Y1300519D01*
X1557519Y1299474D01*
X1557139Y1298454D01*
X1556687Y1297464D01*
X1556165Y1296509D01*
X1555576Y1295593D01*
X1554924Y1294721D01*
X1554211Y1293899D01*
X1553441Y1293129D01*
X1552619Y1292416D01*
X1551747Y1291764D01*
X1550831Y1291175D01*
X1549876Y1290653D01*
X1548886Y1290201D01*
X1547866Y1289821D01*
X1546821Y1289514D01*
X1545758Y1289283D01*
X1544680Y1289128D01*
X1543594Y1289050D01*
X1542506Y1289050D01*
X1541420Y1289128D01*
X1540342Y1289283D01*
X1539279Y1289514D01*
X1538234Y1289821D01*
X1537214Y1290201D01*
X1536224Y1290653D01*
X1535269Y1291175D01*
X1534353Y1291764D01*
X1533481Y1292416D01*
X1532659Y1293129D01*
X1531889Y1293899D01*
X1531176Y1294721D01*
X1530524Y1295593D01*
X1529935Y1296509D01*
X1529413Y1297464D01*
X1528961Y1298454D01*
X1528581Y1299474D01*
X1528274Y1300519D01*
X1528043Y1301582D01*
X1527888Y1302660D01*
X1527810Y1303746D01*
X1527810Y1304834D01*
X1527888Y1305920D01*
X1528043Y1306998D01*
X1528274Y1308061D01*
X1528581Y1309106D01*
X1528961Y1310126D01*
X1529413Y1311116D01*
X1529935Y1312071D01*
X1530524Y1312987D01*
X1531176Y1313859D01*
X1531889Y1314681D01*
X1532659Y1315451D01*
X1533481Y1316164D01*
X1534353Y1316816D01*
X1535269Y1317405D01*
X1536224Y1317927D01*
X1537214Y1318379D01*
X1538234Y1318759D01*
X1539279Y1319066D01*
X1540342Y1319297D01*
X1541420Y1319452D01*
X1542506Y1319530D01*
X1543594Y1319530D01*
X1544680Y1319452D01*
X1545758Y1319297D01*
X1546821Y1319066D01*
X1547866Y1318759D01*
X1548886Y1318379D01*
X1549876Y1317927D01*
X1550831Y1317405D01*
X1551747Y1316816D01*
X1552619Y1316164D01*
X1553441Y1315451D01*
X1554211Y1314681D01*
X1554924Y1313859D01*
X1555576Y1312987D01*
X1556165Y1312071D01*
X1556687Y1311116D01*
X1557139Y1310126D01*
X1557519Y1309106D01*
X1557826Y1308061D01*
X1558057Y1306998D01*
X1558212Y1305920D01*
X1558290Y1304834D01*
X1558290Y1303746D01*
X755015Y465546D02*
X754937Y464460D01*
X754782Y463382D01*
X754551Y462319D01*
X754244Y461274D01*
X753864Y460254D01*
X753412Y459264D01*
X752890Y458309D01*
X752301Y457393D01*
X751649Y456521D01*
X750936Y455699D01*
X750166Y454929D01*
X749344Y454216D01*
X748472Y453564D01*
X747556Y452975D01*
X746601Y452453D01*
X745611Y452001D01*
X744591Y451621D01*
X743546Y451314D01*
X742483Y451083D01*
X741405Y450928D01*
X740319Y450850D01*
X739231Y450850D01*
X738145Y450928D01*
X737067Y451083D01*
X736004Y451314D01*
X734959Y451621D01*
X733939Y452001D01*
X732949Y452453D01*
X731994Y452975D01*
X731078Y453564D01*
X730206Y454216D01*
X729384Y454929D01*
X728614Y455699D01*
X727901Y456521D01*
X727249Y457393D01*
X726660Y458309D01*
X726138Y459264D01*
X725686Y460254D01*
X725306Y461274D01*
X724999Y462319D01*
X724768Y463382D01*
X724613Y464460D01*
X724535Y465546D01*
X724535Y466634D01*
X724613Y467720D01*
X724768Y468798D01*
X724999Y469861D01*
X725306Y470906D01*
X725686Y471926D01*
X726138Y472916D01*
X726660Y473871D01*
X727249Y474787D01*
X727901Y475659D01*
X728614Y476481D01*
X729384Y477251D01*
X730206Y477964D01*
X731078Y478616D01*
X731994Y479205D01*
X732949Y479727D01*
X733939Y480179D01*
X734959Y480559D01*
X736004Y480866D01*
X737067Y481097D01*
X738145Y481252D01*
X739231Y481330D01*
X740319Y481330D01*
X741405Y481252D01*
X742483Y481097D01*
X743546Y480866D01*
X744591Y480559D01*
X745611Y480179D01*
X746601Y479727D01*
X747556Y479205D01*
X748472Y478616D01*
X749344Y477964D01*
X750166Y477251D01*
X750936Y476481D01*
X751649Y475659D01*
X752301Y474787D01*
X752890Y473871D01*
X753412Y472916D01*
X753864Y471926D01*
X754244Y470906D01*
X754551Y469861D01*
X754782Y468798D01*
X754937Y467720D01*
X755015Y466634D01*
X755015Y465546D01*
X955040Y668746D02*
X954962Y667660D01*
X954807Y666582D01*
X954576Y665519D01*
X954269Y664474D01*
X953889Y663454D01*
X953437Y662464D01*
X952915Y661509D01*
X952326Y660593D01*
X951674Y659721D01*
X950961Y658899D01*
X950191Y658129D01*
X949369Y657416D01*
X948497Y656764D01*
X947581Y656175D01*
X946626Y655653D01*
X945636Y655201D01*
X944616Y654821D01*
X943571Y654514D01*
X942508Y654283D01*
X941430Y654128D01*
X940344Y654050D01*
X939256Y654050D01*
X938170Y654128D01*
X937092Y654283D01*
X936029Y654514D01*
X934984Y654821D01*
X933964Y655201D01*
X932974Y655653D01*
X932019Y656175D01*
X931103Y656764D01*
X930231Y657416D01*
X929409Y658129D01*
X928639Y658899D01*
X927926Y659721D01*
X927274Y660593D01*
X926685Y661509D01*
X926163Y662464D01*
X925711Y663454D01*
X925331Y664474D01*
X925024Y665519D01*
X924793Y666582D01*
X924638Y667660D01*
X924560Y668746D01*
X924560Y669834D01*
X924638Y670920D01*
X924793Y671998D01*
X925024Y673061D01*
X925331Y674106D01*
X925711Y675126D01*
X926163Y676116D01*
X926685Y677071D01*
X927274Y677987D01*
X927926Y678859D01*
X928639Y679681D01*
X929409Y680451D01*
X930231Y681164D01*
X931103Y681816D01*
X932019Y682405D01*
X932974Y682927D01*
X933964Y683379D01*
X934984Y683759D01*
X936029Y684066D01*
X937092Y684297D01*
X938170Y684452D01*
X939256Y684530D01*
X940344Y684530D01*
X941430Y684452D01*
X942508Y684297D01*
X943571Y684066D01*
X944616Y683759D01*
X945636Y683379D01*
X946626Y682927D01*
X947581Y682405D01*
X948497Y681816D01*
X949369Y681164D01*
X950191Y680451D01*
X950961Y679681D01*
X951674Y678859D01*
X952326Y677987D01*
X952915Y677071D01*
X953437Y676116D01*
X953889Y675126D01*
X954269Y674106D01*
X954576Y673061D01*
X954807Y671998D01*
X954962Y670920D01*
X955040Y669834D01*
X955040Y668746D01*
X586740Y672556D02*
X586662Y671470D01*
X586507Y670392D01*
X586276Y669329D01*
X585969Y668284D01*
X585589Y667264D01*
X585137Y666274D01*
X584615Y665319D01*
X584026Y664403D01*
X583374Y663531D01*
X582661Y662709D01*
X581891Y661939D01*
X581069Y661226D01*
X580197Y660574D01*
X579281Y659985D01*
X578326Y659463D01*
X577336Y659011D01*
X576316Y658631D01*
X575271Y658324D01*
X574208Y658093D01*
X573130Y657938D01*
X572044Y657860D01*
X570956Y657860D01*
X569870Y657938D01*
X568792Y658093D01*
X567729Y658324D01*
X566684Y658631D01*
X565664Y659011D01*
X564674Y659463D01*
X563719Y659985D01*
X562803Y660574D01*
X561931Y661226D01*
X561109Y661939D01*
X560339Y662709D01*
X559626Y663531D01*
X558974Y664403D01*
X558385Y665319D01*
X557863Y666274D01*
X557411Y667264D01*
X557031Y668284D01*
X556724Y669329D01*
X556493Y670392D01*
X556338Y671470D01*
X556260Y672556D01*
X556260Y673644D01*
X556338Y674730D01*
X556493Y675808D01*
X556724Y676871D01*
X557031Y677916D01*
X557411Y678936D01*
X557863Y679926D01*
X558385Y680881D01*
X558974Y681797D01*
X559626Y682669D01*
X560339Y683491D01*
X561109Y684261D01*
X561931Y684974D01*
X562803Y685626D01*
X563719Y686215D01*
X564674Y686737D01*
X565664Y687189D01*
X566684Y687569D01*
X567729Y687876D01*
X568792Y688107D01*
X569870Y688262D01*
X570956Y688340D01*
X572044Y688340D01*
X573130Y688262D01*
X574208Y688107D01*
X575271Y687876D01*
X576316Y687569D01*
X577336Y687189D01*
X578326Y686737D01*
X579281Y686215D01*
X580197Y685626D01*
X581069Y684974D01*
X581891Y684261D01*
X582661Y683491D01*
X583374Y682669D01*
X584026Y681797D01*
X584615Y680881D01*
X585137Y679926D01*
X585589Y678936D01*
X585969Y677916D01*
X586276Y676871D01*
X586507Y675808D01*
X586662Y674730D01*
X586740Y673644D01*
X586740Y672556D01*
X1459865Y668746D02*
X1459787Y667660D01*
X1459632Y666582D01*
X1459401Y665519D01*
X1459094Y664474D01*
X1458714Y663454D01*
X1458262Y662464D01*
X1457740Y661509D01*
X1457151Y660593D01*
X1456499Y659721D01*
X1455786Y658899D01*
X1455016Y658129D01*
X1454194Y657416D01*
X1453322Y656764D01*
X1452406Y656175D01*
X1451451Y655653D01*
X1450461Y655201D01*
X1449441Y654821D01*
X1448396Y654514D01*
X1447333Y654283D01*
X1446255Y654128D01*
X1445169Y654050D01*
X1444081Y654050D01*
X1442995Y654128D01*
X1441917Y654283D01*
X1440854Y654514D01*
X1439809Y654821D01*
X1438789Y655201D01*
X1437799Y655653D01*
X1436844Y656175D01*
X1435928Y656764D01*
X1435056Y657416D01*
X1434234Y658129D01*
X1433464Y658899D01*
X1432751Y659721D01*
X1432099Y660593D01*
X1431510Y661509D01*
X1430988Y662464D01*
X1430536Y663454D01*
X1430156Y664474D01*
X1429849Y665519D01*
X1429618Y666582D01*
X1429463Y667660D01*
X1429385Y668746D01*
X1429385Y669834D01*
X1429463Y670920D01*
X1429618Y671998D01*
X1429849Y673061D01*
X1430156Y674106D01*
X1430536Y675126D01*
X1430988Y676116D01*
X1431510Y677071D01*
X1432099Y677987D01*
X1432751Y678859D01*
X1433464Y679681D01*
X1434234Y680451D01*
X1435056Y681164D01*
X1435928Y681816D01*
X1436844Y682405D01*
X1437799Y682927D01*
X1438789Y683379D01*
X1439809Y683759D01*
X1440854Y684066D01*
X1441917Y684297D01*
X1442995Y684452D01*
X1444081Y684530D01*
X1445169Y684530D01*
X1446255Y684452D01*
X1447333Y684297D01*
X1448396Y684066D01*
X1449441Y683759D01*
X1450461Y683379D01*
X1451451Y682927D01*
X1452406Y682405D01*
X1453322Y681816D01*
X1454194Y681164D01*
X1455016Y680451D01*
X1455786Y679681D01*
X1456499Y678859D01*
X1457151Y677987D01*
X1457740Y677071D01*
X1458262Y676116D01*
X1458714Y675126D01*
X1459094Y674106D01*
X1459401Y673061D01*
X1459632Y671998D01*
X1459787Y670920D01*
X1459865Y669834D01*
X1459865Y668746D01*
M02*
