G04 EAGLE Gerber RS-274X export*
G75*
%MOMM*%
%FSLAX34Y34*%
%LPD*%
%INSilkscreen Bottom*%
%IPPOS*%
%AMOC8*
5,1,8,0,0,1.08239X$1,22.5*%
G01*
%ADD10C,0.127000*%
%ADD11C,0.076200*%
%ADD12C,0.177800*%
%ADD13C,0.812800*%
%ADD14C,0.101600*%
%ADD15C,0.152400*%
%ADD16C,0.050800*%
%ADD17C,0.203200*%
%ADD18R,0.381000X0.508000*%
%ADD19R,0.762000X0.863600*%


D10*
X232410Y616464D02*
X232410Y611888D01*
X230122Y609600D01*
X227834Y611888D01*
X227834Y616464D01*
X224926Y609600D02*
X222638Y609600D01*
X223782Y609600D02*
X223782Y616464D01*
X224926Y616464D02*
X222638Y616464D01*
X219936Y616464D02*
X219936Y609600D01*
X215361Y609600D02*
X219936Y616464D01*
X215361Y616464D02*
X215361Y609600D01*
X228978Y550424D02*
X227834Y549280D01*
X228978Y550424D02*
X231266Y550424D01*
X232410Y549280D01*
X232410Y544704D01*
X231266Y543560D01*
X228978Y543560D01*
X227834Y544704D01*
X227834Y546992D01*
X230122Y546992D01*
X224926Y543560D02*
X224926Y550424D01*
X220350Y543560D01*
X220350Y550424D01*
X217442Y550424D02*
X217442Y543560D01*
X214010Y543560D01*
X212866Y544704D01*
X212866Y549280D01*
X214010Y550424D01*
X217442Y550424D01*
D11*
X1314148Y541659D02*
X1320419Y541659D01*
X1317284Y544794D02*
X1317284Y538524D01*
X1311064Y538524D02*
X1309496Y536956D01*
X1306361Y536956D01*
X1304793Y538524D01*
X1304793Y544794D01*
X1306361Y546362D01*
X1309496Y546362D01*
X1311064Y544794D01*
X1311064Y543227D01*
X1309496Y541659D01*
X1304793Y541659D01*
X1301709Y540091D02*
X1301709Y546362D01*
X1301709Y540091D02*
X1298573Y536956D01*
X1295438Y540091D01*
X1295438Y546362D01*
D12*
X1616474Y168919D02*
X1616474Y161886D01*
X1612957Y158369D01*
X1598891Y158369D01*
X1595374Y161886D01*
X1595374Y168919D01*
X1598891Y172436D01*
X1612957Y172436D01*
X1616474Y168919D01*
X1609441Y179418D02*
X1588341Y179418D01*
X1609441Y179418D02*
X1609441Y189968D01*
X1605924Y193485D01*
X1598891Y193485D01*
X1595374Y189968D01*
X1595374Y179418D01*
X1595374Y203984D02*
X1595374Y211017D01*
X1595374Y203984D02*
X1598891Y200467D01*
X1605924Y200467D01*
X1609441Y203984D01*
X1609441Y211017D01*
X1605924Y214534D01*
X1602407Y214534D01*
X1602407Y200467D01*
X1595374Y221517D02*
X1609441Y221517D01*
X1609441Y232067D01*
X1605924Y235583D01*
X1595374Y235583D01*
X1612957Y256632D02*
X1616474Y253116D01*
X1616474Y246082D01*
X1612957Y242566D01*
X1609441Y242566D01*
X1605924Y246082D01*
X1605924Y253116D01*
X1602407Y256632D01*
X1598891Y256632D01*
X1595374Y253116D01*
X1595374Y246082D01*
X1598891Y242566D01*
X1598891Y267132D02*
X1612957Y267132D01*
X1598891Y267132D02*
X1595374Y270648D01*
X1609441Y270648D02*
X1609441Y263615D01*
X1609441Y281164D02*
X1609441Y288198D01*
X1605924Y291714D01*
X1595374Y291714D01*
X1595374Y281164D01*
X1598891Y277648D01*
X1602407Y281164D01*
X1602407Y291714D01*
X1588341Y305730D02*
X1588341Y309247D01*
X1591857Y312764D01*
X1609441Y312764D01*
X1609441Y302214D01*
X1605924Y298697D01*
X1598891Y298697D01*
X1595374Y302214D01*
X1595374Y312764D01*
X1595374Y323263D02*
X1595374Y330296D01*
X1595374Y323263D02*
X1598891Y319746D01*
X1605924Y319746D01*
X1609441Y323263D01*
X1609441Y330296D01*
X1605924Y333813D01*
X1602407Y333813D01*
X1602407Y319746D01*
X1609441Y361844D02*
X1595374Y368878D01*
X1609441Y375911D01*
X1612957Y382894D02*
X1616474Y386410D01*
X1616474Y393444D01*
X1612957Y396960D01*
X1609441Y396960D01*
X1605924Y393444D01*
X1605924Y389927D01*
X1605924Y393444D02*
X1602407Y396960D01*
X1598891Y396960D01*
X1595374Y393444D01*
X1595374Y386410D01*
X1598891Y382894D01*
X1582184Y168919D02*
X1561084Y168919D01*
X1571634Y158369D02*
X1582184Y168919D01*
X1571634Y172436D02*
X1571634Y158369D01*
X1575151Y203984D02*
X1575151Y211017D01*
X1571634Y214534D01*
X1561084Y214534D01*
X1561084Y203984D01*
X1564601Y200467D01*
X1568117Y203984D01*
X1568117Y214534D01*
X1575151Y221517D02*
X1561084Y235583D01*
X1561084Y221517D02*
X1575151Y235583D01*
X1575151Y242566D02*
X1575151Y246082D01*
X1561084Y246082D01*
X1561084Y242566D02*
X1561084Y249599D01*
X1582184Y246082D02*
X1585701Y246082D01*
X1561084Y256599D02*
X1561084Y267149D01*
X1564601Y270665D01*
X1568117Y267149D01*
X1568117Y260115D01*
X1571634Y256599D01*
X1575151Y260115D01*
X1575151Y270665D01*
X1575151Y298697D02*
X1561084Y298697D01*
X1575151Y298697D02*
X1575151Y302214D01*
X1571634Y305730D01*
X1561084Y305730D01*
X1571634Y305730D02*
X1575151Y309247D01*
X1571634Y312764D01*
X1561084Y312764D01*
X1575151Y319746D02*
X1575151Y323263D01*
X1561084Y323263D01*
X1561084Y326779D02*
X1561084Y319746D01*
X1582184Y323263D02*
X1585701Y323263D01*
X1575151Y337296D02*
X1575151Y347846D01*
X1575151Y337296D02*
X1571634Y333779D01*
X1564601Y333779D01*
X1561084Y337296D01*
X1561084Y347846D01*
X1561084Y354828D02*
X1575151Y354828D01*
X1575151Y361861D02*
X1568117Y354828D01*
X1575151Y361861D02*
X1575151Y365378D01*
X1561084Y375886D02*
X1561084Y382919D01*
X1564601Y386436D01*
X1571634Y386436D01*
X1575151Y382919D01*
X1575151Y375886D01*
X1571634Y372369D01*
X1564601Y372369D01*
X1561084Y375886D01*
X1561084Y393418D02*
X1561084Y403968D01*
X1564601Y407485D01*
X1568117Y403968D01*
X1568117Y396935D01*
X1571634Y393418D01*
X1575151Y396935D01*
X1575151Y407485D01*
X1575151Y417984D02*
X1575151Y428534D01*
X1575151Y417984D02*
X1571634Y414467D01*
X1564601Y414467D01*
X1561084Y417984D01*
X1561084Y428534D01*
X1561084Y439033D02*
X1561084Y446067D01*
X1564601Y449583D01*
X1571634Y449583D01*
X1575151Y446067D01*
X1575151Y439033D01*
X1571634Y435517D01*
X1564601Y435517D01*
X1561084Y439033D01*
X1554051Y456566D02*
X1575151Y456566D01*
X1575151Y467116D01*
X1571634Y470632D01*
X1564601Y470632D01*
X1561084Y467116D01*
X1561084Y456566D01*
X1561084Y481132D02*
X1561084Y488165D01*
X1561084Y481132D02*
X1564601Y477615D01*
X1571634Y477615D01*
X1575151Y481132D01*
X1575151Y488165D01*
X1571634Y491682D01*
X1568117Y491682D01*
X1568117Y477615D01*
X1561084Y519713D02*
X1561084Y530263D01*
X1564601Y533780D01*
X1568117Y530263D01*
X1568117Y523230D01*
X1571634Y519713D01*
X1575151Y523230D01*
X1575151Y533780D01*
X1578667Y544279D02*
X1564601Y544279D01*
X1561084Y547796D01*
X1575151Y547796D02*
X1575151Y540763D01*
X1575151Y558312D02*
X1575151Y565345D01*
X1571634Y568862D01*
X1561084Y568862D01*
X1561084Y558312D01*
X1564601Y554795D01*
X1568117Y558312D01*
X1568117Y568862D01*
X1554051Y582878D02*
X1554051Y586395D01*
X1557567Y589911D01*
X1575151Y589911D01*
X1575151Y579361D01*
X1571634Y575845D01*
X1564601Y575845D01*
X1561084Y579361D01*
X1561084Y589911D01*
X1561084Y600410D02*
X1561084Y607444D01*
X1561084Y600410D02*
X1564601Y596894D01*
X1571634Y596894D01*
X1575151Y600410D01*
X1575151Y607444D01*
X1571634Y610960D01*
X1568117Y610960D01*
X1568117Y596894D01*
X1575151Y642509D02*
X1575151Y653059D01*
X1575151Y642509D02*
X1571634Y638992D01*
X1564601Y638992D01*
X1561084Y642509D01*
X1561084Y653059D01*
X1561084Y663558D02*
X1561084Y670591D01*
X1564601Y674108D01*
X1571634Y674108D01*
X1575151Y670591D01*
X1575151Y663558D01*
X1571634Y660041D01*
X1564601Y660041D01*
X1561084Y663558D01*
X1561084Y681090D02*
X1575151Y681090D01*
X1575151Y691640D01*
X1571634Y695157D01*
X1561084Y695157D01*
X1564601Y705656D02*
X1578667Y705656D01*
X1564601Y705656D02*
X1561084Y709173D01*
X1575151Y709173D02*
X1575151Y702140D01*
X1575151Y716172D02*
X1561084Y716172D01*
X1568117Y716172D02*
X1575151Y723206D01*
X1575151Y726722D01*
X1561084Y737230D02*
X1561084Y744263D01*
X1564601Y747780D01*
X1571634Y747780D01*
X1575151Y744263D01*
X1575151Y737230D01*
X1571634Y733713D01*
X1564601Y733713D01*
X1561084Y737230D01*
X1582184Y754763D02*
X1582184Y758279D01*
X1561084Y758279D01*
X1561084Y754763D02*
X1561084Y761796D01*
X1582184Y768795D02*
X1582184Y772312D01*
X1561084Y772312D01*
X1561084Y768795D02*
X1561084Y775829D01*
X1561084Y786345D02*
X1561084Y793378D01*
X1561084Y786345D02*
X1564601Y782828D01*
X1571634Y782828D01*
X1575151Y786345D01*
X1575151Y793378D01*
X1571634Y796895D01*
X1568117Y796895D01*
X1568117Y782828D01*
X1561084Y803877D02*
X1575151Y803877D01*
X1568117Y803877D02*
X1575151Y810911D01*
X1575151Y814427D01*
X1547894Y158369D02*
X1526794Y158369D01*
X1547894Y158369D02*
X1547894Y168919D01*
X1544377Y172436D01*
X1537344Y172436D01*
X1533827Y168919D01*
X1533827Y158369D01*
X1533827Y165402D02*
X1526794Y172436D01*
X1526794Y182935D02*
X1526794Y189968D01*
X1530311Y193485D01*
X1537344Y193485D01*
X1540861Y189968D01*
X1540861Y182935D01*
X1537344Y179418D01*
X1530311Y179418D01*
X1526794Y182935D01*
X1526794Y200467D02*
X1547894Y200467D01*
X1526794Y200467D02*
X1526794Y211017D01*
X1530311Y214534D01*
X1537344Y214534D01*
X1540861Y211017D01*
X1540861Y200467D01*
X1547894Y253116D02*
X1544377Y256632D01*
X1547894Y253116D02*
X1547894Y246082D01*
X1544377Y242566D01*
X1530311Y242566D01*
X1526794Y246082D01*
X1526794Y253116D01*
X1530311Y256632D01*
X1540861Y267132D02*
X1540861Y274165D01*
X1537344Y277682D01*
X1526794Y277682D01*
X1526794Y267132D01*
X1530311Y263615D01*
X1533827Y267132D01*
X1533827Y277682D01*
X1526794Y284664D02*
X1540861Y284664D01*
X1540861Y288181D01*
X1537344Y291697D01*
X1526794Y291697D01*
X1537344Y291697D02*
X1540861Y295214D01*
X1537344Y298731D01*
X1526794Y298731D01*
X1519761Y305713D02*
X1540861Y305713D01*
X1540861Y316263D01*
X1537344Y319780D01*
X1530311Y319780D01*
X1526794Y316263D01*
X1526794Y305713D01*
X1526794Y326763D02*
X1547894Y326763D01*
X1526794Y326763D02*
X1526794Y337313D01*
X1530311Y340829D01*
X1537344Y340829D01*
X1540861Y337313D01*
X1540861Y326763D01*
X1526794Y351328D02*
X1526794Y358362D01*
X1526794Y351328D02*
X1530311Y347812D01*
X1537344Y347812D01*
X1540861Y351328D01*
X1540861Y358362D01*
X1537344Y361878D01*
X1533827Y361878D01*
X1533827Y347812D01*
X1547894Y368861D02*
X1547894Y372378D01*
X1526794Y372378D01*
X1526794Y375894D02*
X1526794Y368861D01*
X1547894Y382894D02*
X1547894Y386410D01*
X1526794Y386410D01*
X1526794Y382894D02*
X1526794Y389927D01*
X1519761Y396926D02*
X1526794Y403960D01*
X1530311Y403960D01*
X1530311Y400443D01*
X1526794Y400443D01*
X1526794Y403960D01*
X1526794Y432008D02*
X1526794Y446075D01*
X1526794Y432008D02*
X1540861Y446075D01*
X1544377Y446075D01*
X1547894Y442558D01*
X1547894Y435525D01*
X1544377Y432008D01*
X1544377Y453058D02*
X1530311Y453058D01*
X1544377Y453058D02*
X1547894Y456574D01*
X1547894Y463608D01*
X1544377Y467124D01*
X1530311Y467124D01*
X1526794Y463608D01*
X1526794Y456574D01*
X1530311Y453058D01*
X1544377Y467124D01*
X1540861Y474107D02*
X1547894Y481140D01*
X1526794Y481140D01*
X1526794Y474107D02*
X1526794Y488173D01*
X1526794Y505706D02*
X1547894Y505706D01*
X1537344Y495156D01*
X1537344Y509223D01*
D13*
X63500Y1168400D02*
X63502Y1168559D01*
X63508Y1168718D01*
X63518Y1168876D01*
X63532Y1169035D01*
X63550Y1169193D01*
X63571Y1169350D01*
X63597Y1169507D01*
X63627Y1169663D01*
X63660Y1169819D01*
X63698Y1169973D01*
X63739Y1170127D01*
X63784Y1170279D01*
X63833Y1170430D01*
X63886Y1170580D01*
X63942Y1170729D01*
X64003Y1170876D01*
X64066Y1171021D01*
X64134Y1171165D01*
X64205Y1171308D01*
X64279Y1171448D01*
X64357Y1171586D01*
X64439Y1171723D01*
X64524Y1171857D01*
X64612Y1171990D01*
X64703Y1172120D01*
X64798Y1172247D01*
X64896Y1172372D01*
X64997Y1172495D01*
X65101Y1172615D01*
X65208Y1172733D01*
X65318Y1172848D01*
X65431Y1172960D01*
X65546Y1173069D01*
X65664Y1173175D01*
X65785Y1173279D01*
X65909Y1173379D01*
X66034Y1173476D01*
X66163Y1173570D01*
X66293Y1173660D01*
X66426Y1173748D01*
X66561Y1173832D01*
X66698Y1173912D01*
X66837Y1173990D01*
X66978Y1174063D01*
X67120Y1174133D01*
X67265Y1174200D01*
X67411Y1174263D01*
X67558Y1174322D01*
X67707Y1174378D01*
X67858Y1174429D01*
X68009Y1174477D01*
X68162Y1174521D01*
X68316Y1174562D01*
X68470Y1174598D01*
X68626Y1174631D01*
X68782Y1174660D01*
X68939Y1174684D01*
X69097Y1174705D01*
X69255Y1174722D01*
X69413Y1174735D01*
X69572Y1174744D01*
X69731Y1174749D01*
X69890Y1174750D01*
X70049Y1174747D01*
X70207Y1174740D01*
X70366Y1174729D01*
X70524Y1174714D01*
X70682Y1174695D01*
X70839Y1174672D01*
X70996Y1174646D01*
X71152Y1174615D01*
X71307Y1174581D01*
X71461Y1174542D01*
X71615Y1174500D01*
X71767Y1174454D01*
X71918Y1174404D01*
X72067Y1174350D01*
X72216Y1174293D01*
X72362Y1174232D01*
X72508Y1174167D01*
X72651Y1174099D01*
X72793Y1174027D01*
X72933Y1173951D01*
X73071Y1173873D01*
X73207Y1173790D01*
X73341Y1173705D01*
X73472Y1173616D01*
X73602Y1173523D01*
X73729Y1173428D01*
X73853Y1173329D01*
X73976Y1173227D01*
X74095Y1173123D01*
X74212Y1173015D01*
X74326Y1172904D01*
X74437Y1172791D01*
X74546Y1172675D01*
X74651Y1172556D01*
X74754Y1172434D01*
X74853Y1172310D01*
X74950Y1172184D01*
X75043Y1172055D01*
X75133Y1171924D01*
X75219Y1171790D01*
X75302Y1171655D01*
X75382Y1171517D01*
X75458Y1171378D01*
X75531Y1171237D01*
X75600Y1171094D01*
X75666Y1170949D01*
X75728Y1170802D01*
X75786Y1170655D01*
X75841Y1170505D01*
X75892Y1170355D01*
X75939Y1170203D01*
X75982Y1170050D01*
X76021Y1169896D01*
X76057Y1169741D01*
X76088Y1169585D01*
X76116Y1169429D01*
X76140Y1169272D01*
X76160Y1169114D01*
X76176Y1168956D01*
X76188Y1168797D01*
X76196Y1168638D01*
X76200Y1168479D01*
X76200Y1168321D01*
X76196Y1168162D01*
X76188Y1168003D01*
X76176Y1167844D01*
X76160Y1167686D01*
X76140Y1167528D01*
X76116Y1167371D01*
X76088Y1167215D01*
X76057Y1167059D01*
X76021Y1166904D01*
X75982Y1166750D01*
X75939Y1166597D01*
X75892Y1166445D01*
X75841Y1166295D01*
X75786Y1166145D01*
X75728Y1165998D01*
X75666Y1165851D01*
X75600Y1165706D01*
X75531Y1165563D01*
X75458Y1165422D01*
X75382Y1165283D01*
X75302Y1165145D01*
X75219Y1165010D01*
X75133Y1164876D01*
X75043Y1164745D01*
X74950Y1164616D01*
X74853Y1164490D01*
X74754Y1164366D01*
X74651Y1164244D01*
X74546Y1164125D01*
X74437Y1164009D01*
X74326Y1163896D01*
X74212Y1163785D01*
X74095Y1163677D01*
X73976Y1163573D01*
X73853Y1163471D01*
X73729Y1163372D01*
X73602Y1163277D01*
X73472Y1163184D01*
X73341Y1163095D01*
X73207Y1163010D01*
X73071Y1162927D01*
X72933Y1162849D01*
X72793Y1162773D01*
X72651Y1162701D01*
X72508Y1162633D01*
X72362Y1162568D01*
X72216Y1162507D01*
X72067Y1162450D01*
X71918Y1162396D01*
X71767Y1162346D01*
X71615Y1162300D01*
X71461Y1162258D01*
X71307Y1162219D01*
X71152Y1162185D01*
X70996Y1162154D01*
X70839Y1162128D01*
X70682Y1162105D01*
X70524Y1162086D01*
X70366Y1162071D01*
X70207Y1162060D01*
X70049Y1162053D01*
X69890Y1162050D01*
X69731Y1162051D01*
X69572Y1162056D01*
X69413Y1162065D01*
X69255Y1162078D01*
X69097Y1162095D01*
X68939Y1162116D01*
X68782Y1162140D01*
X68626Y1162169D01*
X68470Y1162202D01*
X68316Y1162238D01*
X68162Y1162279D01*
X68009Y1162323D01*
X67858Y1162371D01*
X67707Y1162422D01*
X67558Y1162478D01*
X67411Y1162537D01*
X67265Y1162600D01*
X67120Y1162667D01*
X66978Y1162737D01*
X66837Y1162810D01*
X66698Y1162888D01*
X66561Y1162968D01*
X66426Y1163052D01*
X66293Y1163140D01*
X66163Y1163230D01*
X66034Y1163324D01*
X65909Y1163421D01*
X65785Y1163521D01*
X65664Y1163625D01*
X65546Y1163731D01*
X65431Y1163840D01*
X65318Y1163952D01*
X65208Y1164067D01*
X65101Y1164185D01*
X64997Y1164305D01*
X64896Y1164428D01*
X64798Y1164553D01*
X64703Y1164680D01*
X64612Y1164810D01*
X64524Y1164943D01*
X64439Y1165077D01*
X64357Y1165214D01*
X64279Y1165352D01*
X64205Y1165492D01*
X64134Y1165635D01*
X64066Y1165779D01*
X64003Y1165924D01*
X63942Y1166071D01*
X63886Y1166220D01*
X63833Y1166370D01*
X63784Y1166521D01*
X63739Y1166673D01*
X63698Y1166827D01*
X63660Y1166981D01*
X63627Y1167137D01*
X63597Y1167293D01*
X63571Y1167450D01*
X63550Y1167607D01*
X63532Y1167765D01*
X63518Y1167924D01*
X63508Y1168082D01*
X63502Y1168241D01*
X63500Y1168400D01*
X69850Y1168400D02*
X127000Y1168400D01*
X82550Y1181100D02*
X82236Y1181407D01*
X81915Y1181705D01*
X81587Y1181996D01*
X81251Y1182278D01*
X80909Y1182552D01*
X80560Y1182818D01*
X80205Y1183075D01*
X79844Y1183324D01*
X79476Y1183563D01*
X79103Y1183794D01*
X78725Y1184015D01*
X78341Y1184227D01*
X77952Y1184430D01*
X77558Y1184623D01*
X77160Y1184806D01*
X76757Y1184980D01*
X76350Y1185143D01*
X75940Y1185297D01*
X75525Y1185441D01*
X75108Y1185574D01*
X74687Y1185698D01*
X74263Y1185810D01*
X73837Y1185913D01*
X73408Y1186005D01*
X72977Y1186087D01*
X72544Y1186158D01*
X72110Y1186218D01*
X71674Y1186268D01*
X71237Y1186307D01*
X70800Y1186336D01*
X70362Y1186354D01*
X69923Y1186361D01*
X69485Y1186357D01*
X69046Y1186343D01*
X68608Y1186318D01*
X68171Y1186282D01*
X67735Y1186236D01*
X67300Y1186179D01*
X66867Y1186112D01*
X66436Y1186033D01*
X66006Y1185945D01*
X65579Y1185846D01*
X65154Y1185736D01*
X64732Y1185617D01*
X64314Y1185486D01*
X63898Y1185346D01*
X63486Y1185196D01*
X63078Y1185035D01*
X62674Y1184865D01*
X62274Y1184685D01*
X61879Y1184495D01*
X61488Y1184296D01*
X61103Y1184087D01*
X60722Y1183869D01*
X60347Y1183641D01*
X59978Y1183405D01*
X59615Y1183159D01*
X59257Y1182905D01*
X58906Y1182642D01*
X58562Y1182371D01*
X58224Y1182091D01*
X57893Y1181803D01*
X57570Y1181507D01*
X57253Y1181203D01*
X56945Y1180892D01*
X56643Y1180573D01*
X56350Y1180247D01*
X56065Y1179914D01*
X55788Y1179574D01*
X55519Y1179227D01*
X55259Y1178874D01*
X55008Y1178515D01*
X54765Y1178150D01*
X54532Y1177778D01*
X54308Y1177402D01*
X54092Y1177019D01*
X53887Y1176632D01*
X53690Y1176240D01*
X53504Y1175843D01*
X53327Y1175442D01*
X53160Y1175036D01*
X53003Y1174627D01*
X52856Y1174214D01*
X52719Y1173797D01*
X52592Y1173377D01*
X52476Y1172954D01*
X52370Y1172529D01*
X52274Y1172101D01*
X52189Y1171671D01*
X52115Y1171239D01*
X52051Y1170805D01*
X51997Y1170369D01*
X51955Y1169933D01*
X51922Y1169496D01*
X51901Y1169058D01*
X51890Y1168619D01*
X51890Y1168181D01*
X51901Y1167742D01*
X51922Y1167304D01*
X51955Y1166867D01*
X51997Y1166431D01*
X52051Y1165995D01*
X52115Y1165561D01*
X52189Y1165129D01*
X52274Y1164699D01*
X52370Y1164271D01*
X52476Y1163846D01*
X52592Y1163423D01*
X52719Y1163003D01*
X52856Y1162586D01*
X53003Y1162173D01*
X53160Y1161764D01*
X53327Y1161358D01*
X53504Y1160957D01*
X53690Y1160560D01*
X53887Y1160168D01*
X54092Y1159781D01*
X54308Y1159398D01*
X54532Y1159022D01*
X54765Y1158650D01*
X55008Y1158285D01*
X55259Y1157926D01*
X55519Y1157573D01*
X55788Y1157226D01*
X56065Y1156886D01*
X56350Y1156553D01*
X56643Y1156227D01*
X56945Y1155908D01*
X57253Y1155597D01*
X57570Y1155293D01*
X57893Y1154997D01*
X58224Y1154709D01*
X58562Y1154429D01*
X58906Y1154158D01*
X59257Y1153895D01*
X59615Y1153641D01*
X59978Y1153395D01*
X60347Y1153159D01*
X60722Y1152931D01*
X61103Y1152713D01*
X61488Y1152504D01*
X61879Y1152305D01*
X62274Y1152115D01*
X62674Y1151935D01*
X63078Y1151765D01*
X63486Y1151604D01*
X63898Y1151454D01*
X64314Y1151314D01*
X64732Y1151183D01*
X65154Y1151064D01*
X65579Y1150954D01*
X66006Y1150855D01*
X66436Y1150767D01*
X66867Y1150688D01*
X67300Y1150621D01*
X67735Y1150564D01*
X68171Y1150518D01*
X68608Y1150482D01*
X69046Y1150457D01*
X69485Y1150443D01*
X69923Y1150439D01*
X70362Y1150446D01*
X70800Y1150464D01*
X71237Y1150493D01*
X71674Y1150532D01*
X72110Y1150582D01*
X72544Y1150642D01*
X72977Y1150713D01*
X73408Y1150795D01*
X73837Y1150887D01*
X74263Y1150990D01*
X74687Y1151102D01*
X75108Y1151226D01*
X75525Y1151359D01*
X75940Y1151503D01*
X76350Y1151657D01*
X76757Y1151820D01*
X77160Y1151994D01*
X77558Y1152177D01*
X77952Y1152370D01*
X78341Y1152573D01*
X78725Y1152785D01*
X79103Y1153006D01*
X79476Y1153237D01*
X79844Y1153476D01*
X80205Y1153725D01*
X80560Y1153982D01*
X80909Y1154248D01*
X81251Y1154522D01*
X81587Y1154804D01*
X81915Y1155095D01*
X82236Y1155393D01*
X82550Y1155700D01*
X50800Y1168400D02*
X12700Y1168400D01*
D14*
X245854Y1186343D02*
X254667Y1186343D01*
X250261Y1190749D02*
X250261Y1181936D01*
X241570Y1188546D02*
X237163Y1192952D01*
X237163Y1179733D01*
X232757Y1179733D02*
X241570Y1179733D01*
X228473Y1179733D02*
X219660Y1179733D01*
X228473Y1179733D02*
X219660Y1188546D01*
X219660Y1190749D01*
X221863Y1192952D01*
X226269Y1192952D01*
X228473Y1190749D01*
X200075Y1190749D02*
X200075Y1181936D01*
X197872Y1179733D01*
X197872Y1188546D02*
X202278Y1188546D01*
X191343Y1179733D02*
X186937Y1179733D01*
X184734Y1181936D01*
X184734Y1186343D01*
X186937Y1188546D01*
X191343Y1188546D01*
X193547Y1186343D01*
X193547Y1181936D01*
X191343Y1179733D01*
X167352Y1190749D02*
X165149Y1192952D01*
X160742Y1192952D01*
X158539Y1190749D01*
X158539Y1188546D01*
X160742Y1186343D01*
X162946Y1186343D01*
X160742Y1186343D02*
X158539Y1184139D01*
X158539Y1181936D01*
X160742Y1179733D01*
X165149Y1179733D01*
X167352Y1181936D01*
X154255Y1179733D02*
X145442Y1179733D01*
X154255Y1179733D02*
X145442Y1188546D01*
X145442Y1190749D01*
X147645Y1192952D01*
X152052Y1192952D01*
X154255Y1190749D01*
X141158Y1192952D02*
X141158Y1184139D01*
X136751Y1179733D01*
X132345Y1184139D01*
X132345Y1192952D01*
X24892Y1181868D02*
X16079Y1181868D01*
D10*
X157861Y592446D02*
X173368Y592446D01*
X168199Y597615D01*
X173368Y602784D01*
X157861Y602784D01*
X173368Y610467D02*
X173368Y615636D01*
X173368Y610467D02*
X170784Y607882D01*
X160446Y607882D01*
X157861Y610467D01*
X157861Y615636D01*
X160446Y618220D01*
X170784Y618220D01*
X173368Y615636D01*
X173368Y628487D02*
X157861Y628487D01*
X173368Y623318D02*
X173368Y633656D01*
X173368Y641339D02*
X173368Y646508D01*
X173368Y641339D02*
X170784Y638754D01*
X160446Y638754D01*
X157861Y641339D01*
X157861Y646508D01*
X160446Y649092D01*
X170784Y649092D01*
X173368Y646508D01*
X173368Y654190D02*
X157861Y654190D01*
X173368Y654190D02*
X173368Y661944D01*
X170784Y664528D01*
X165615Y664528D01*
X163030Y661944D01*
X163030Y654190D01*
X163030Y659359D02*
X157861Y664528D01*
X173368Y687647D02*
X173368Y692816D01*
X173368Y687647D02*
X170784Y685062D01*
X160446Y685062D01*
X157861Y687647D01*
X157861Y692816D01*
X160446Y695401D01*
X170784Y695401D01*
X173368Y692816D01*
X173368Y700499D02*
X160446Y700499D01*
X157861Y703083D01*
X157861Y708252D01*
X160446Y710837D01*
X173368Y710837D01*
X173368Y721104D02*
X157861Y721104D01*
X173368Y715935D02*
X173368Y726273D01*
X173368Y731371D02*
X157861Y731371D01*
X173368Y731371D02*
X173368Y739124D01*
X170784Y741709D01*
X165615Y741709D01*
X163030Y739124D01*
X163030Y731371D01*
X160446Y746807D02*
X173368Y746807D01*
X160446Y746807D02*
X157861Y749391D01*
X157861Y754560D01*
X160446Y757145D01*
X173368Y757145D01*
X173368Y767412D02*
X157861Y767412D01*
X173368Y762243D02*
X173368Y772581D01*
X173368Y785432D02*
X170784Y788017D01*
X173368Y785432D02*
X173368Y780263D01*
X170784Y777679D01*
X168199Y777679D01*
X165615Y780263D01*
X165615Y785432D01*
X163030Y788017D01*
X160446Y788017D01*
X157861Y785432D01*
X157861Y780263D01*
X160446Y777679D01*
D15*
X1250665Y1162644D02*
X1253377Y1159932D01*
X1253377Y1154509D01*
X1250665Y1151797D01*
X1239819Y1151797D01*
X1237107Y1154509D01*
X1237107Y1159932D01*
X1239819Y1162644D01*
X1245242Y1162644D01*
X1245242Y1157221D01*
X1237107Y1168169D02*
X1253377Y1168169D01*
X1237107Y1179015D01*
X1253377Y1179015D01*
X1253377Y1184540D02*
X1237107Y1184540D01*
X1237107Y1192675D01*
X1239819Y1195387D01*
X1250665Y1195387D01*
X1253377Y1192675D01*
X1253377Y1184540D01*
X1262507Y1140883D02*
X1278777Y1140883D01*
X1262507Y1140883D02*
X1262507Y1149018D01*
X1265219Y1151729D01*
X1276065Y1151729D01*
X1278777Y1149018D01*
X1278777Y1140883D01*
X1262507Y1157254D02*
X1262507Y1162678D01*
X1262507Y1159966D02*
X1278777Y1159966D01*
X1278777Y1157254D02*
X1278777Y1162678D01*
X1278777Y1168169D02*
X1262507Y1168169D01*
X1278777Y1168169D02*
X1278777Y1176304D01*
X1276065Y1179015D01*
X1270642Y1179015D01*
X1267930Y1176304D01*
X1267930Y1168169D01*
X1267930Y1173592D02*
X1262507Y1179015D01*
X1273354Y1184540D02*
X1278777Y1189964D01*
X1262507Y1189964D01*
X1262507Y1195387D02*
X1262507Y1184540D01*
X1287907Y1140883D02*
X1304177Y1140883D01*
X1287907Y1140883D02*
X1287907Y1149018D01*
X1290619Y1151729D01*
X1301465Y1151729D01*
X1304177Y1149018D01*
X1304177Y1140883D01*
X1287907Y1157254D02*
X1287907Y1162678D01*
X1287907Y1159966D02*
X1304177Y1159966D01*
X1304177Y1157254D02*
X1304177Y1162678D01*
X1304177Y1168169D02*
X1287907Y1168169D01*
X1304177Y1168169D02*
X1304177Y1176304D01*
X1301465Y1179015D01*
X1296042Y1179015D01*
X1293330Y1176304D01*
X1293330Y1168169D01*
X1293330Y1173592D02*
X1287907Y1179015D01*
X1287907Y1184540D02*
X1287907Y1195387D01*
X1287907Y1184540D02*
X1298754Y1195387D01*
X1301465Y1195387D01*
X1304177Y1192675D01*
X1304177Y1187252D01*
X1301465Y1184540D01*
X1313307Y1140883D02*
X1329577Y1140883D01*
X1313307Y1140883D02*
X1313307Y1149018D01*
X1316019Y1151729D01*
X1326865Y1151729D01*
X1329577Y1149018D01*
X1329577Y1140883D01*
X1313307Y1157254D02*
X1313307Y1162678D01*
X1313307Y1159966D02*
X1329577Y1159966D01*
X1329577Y1157254D02*
X1329577Y1162678D01*
X1329577Y1168169D02*
X1313307Y1168169D01*
X1329577Y1168169D02*
X1329577Y1176304D01*
X1326865Y1179015D01*
X1321442Y1179015D01*
X1318730Y1176304D01*
X1318730Y1168169D01*
X1318730Y1173592D02*
X1313307Y1179015D01*
X1326865Y1184540D02*
X1329577Y1187252D01*
X1329577Y1192675D01*
X1326865Y1195387D01*
X1324154Y1195387D01*
X1321442Y1192675D01*
X1321442Y1189964D01*
X1321442Y1192675D02*
X1318730Y1195387D01*
X1316019Y1195387D01*
X1313307Y1192675D01*
X1313307Y1187252D01*
X1316019Y1184540D01*
X1335532Y1140883D02*
X1351802Y1140883D01*
X1335532Y1140883D02*
X1335532Y1149018D01*
X1338244Y1151729D01*
X1349090Y1151729D01*
X1351802Y1149018D01*
X1351802Y1140883D01*
X1335532Y1157254D02*
X1335532Y1162678D01*
X1335532Y1159966D02*
X1351802Y1159966D01*
X1351802Y1157254D02*
X1351802Y1162678D01*
X1351802Y1168169D02*
X1335532Y1168169D01*
X1351802Y1168169D02*
X1351802Y1176304D01*
X1349090Y1179015D01*
X1343667Y1179015D01*
X1340955Y1176304D01*
X1340955Y1168169D01*
X1340955Y1173592D02*
X1335532Y1179015D01*
X1335532Y1192675D02*
X1351802Y1192675D01*
X1343667Y1184540D01*
X1343667Y1195387D01*
X1364107Y1124511D02*
X1380377Y1124511D01*
X1380377Y1132646D01*
X1377665Y1135358D01*
X1372242Y1135358D01*
X1369530Y1132646D01*
X1369530Y1124511D01*
X1374954Y1140883D02*
X1374954Y1143594D01*
X1364107Y1143594D01*
X1364107Y1140883D02*
X1364107Y1146306D01*
X1380377Y1143594D02*
X1383089Y1143594D01*
X1374954Y1151797D02*
X1364107Y1151797D01*
X1374954Y1151797D02*
X1374954Y1159932D01*
X1372242Y1162644D01*
X1364107Y1162644D01*
X1374954Y1168169D02*
X1380377Y1173592D01*
X1364107Y1173592D01*
X1364107Y1168169D02*
X1364107Y1179015D01*
X1364107Y1184540D02*
X1364107Y1195387D01*
X1364107Y1184540D02*
X1374954Y1195387D01*
X1377665Y1195387D01*
X1380377Y1192675D01*
X1380377Y1187252D01*
X1377665Y1184540D01*
D11*
X1080726Y1232202D02*
X1076023Y1232202D01*
X1080726Y1232202D02*
X1082294Y1230634D01*
X1082294Y1227499D01*
X1080726Y1225931D01*
X1076023Y1225931D01*
X1071371Y1225931D02*
X1068236Y1225931D01*
X1066668Y1227499D01*
X1066668Y1230634D01*
X1068236Y1232202D01*
X1071371Y1232202D01*
X1072939Y1230634D01*
X1072939Y1227499D01*
X1071371Y1225931D01*
X1063584Y1225931D02*
X1063584Y1232202D01*
X1058881Y1232202D01*
X1057313Y1230634D01*
X1057313Y1225931D01*
X1052661Y1227499D02*
X1052661Y1233769D01*
X1052661Y1227499D02*
X1051093Y1225931D01*
X1051093Y1232202D02*
X1054228Y1232202D01*
X1047992Y1232202D02*
X1047992Y1225931D01*
X1047992Y1229066D02*
X1044856Y1232202D01*
X1043289Y1232202D01*
X1038628Y1232202D02*
X1035493Y1232202D01*
X1033925Y1230634D01*
X1033925Y1225931D01*
X1038628Y1225931D01*
X1040196Y1227499D01*
X1038628Y1229066D01*
X1033925Y1229066D01*
X1030841Y1225931D02*
X1026138Y1225931D01*
X1024570Y1227499D01*
X1026138Y1229066D01*
X1029273Y1229066D01*
X1030841Y1230634D01*
X1029273Y1232202D01*
X1024570Y1232202D01*
X1019918Y1233769D02*
X1019918Y1227499D01*
X1018350Y1225931D01*
X1018350Y1232202D02*
X1021485Y1232202D01*
D16*
X243837Y1328172D02*
X242651Y1326986D01*
X243837Y1328172D02*
X246210Y1328172D01*
X247396Y1326986D01*
X247396Y1322240D01*
X246210Y1321054D01*
X243837Y1321054D01*
X242651Y1322240D01*
X240380Y1321054D02*
X240380Y1325799D01*
X238007Y1328172D01*
X235634Y1325799D01*
X235634Y1321054D01*
X235634Y1324613D02*
X240380Y1324613D01*
X229804Y1328172D02*
X228618Y1326986D01*
X229804Y1328172D02*
X232177Y1328172D01*
X233363Y1326986D01*
X233363Y1325799D01*
X232177Y1324613D01*
X229804Y1324613D01*
X228618Y1323427D01*
X228618Y1322240D01*
X229804Y1321054D01*
X232177Y1321054D01*
X233363Y1322240D01*
X226347Y1328172D02*
X221602Y1328172D01*
X226347Y1328172D02*
X226347Y1321054D01*
X221602Y1321054D01*
X223974Y1324613D02*
X226347Y1324613D01*
X788751Y1282536D02*
X789937Y1283722D01*
X792310Y1283722D01*
X793496Y1282536D01*
X793496Y1277790D01*
X792310Y1276604D01*
X789937Y1276604D01*
X788751Y1277790D01*
X786480Y1276604D02*
X786480Y1281349D01*
X784107Y1283722D01*
X781734Y1281349D01*
X781734Y1276604D01*
X781734Y1280163D02*
X786480Y1280163D01*
X775904Y1283722D02*
X774718Y1282536D01*
X775904Y1283722D02*
X778277Y1283722D01*
X779463Y1282536D01*
X779463Y1281349D01*
X778277Y1280163D01*
X775904Y1280163D01*
X774718Y1278977D01*
X774718Y1277790D01*
X775904Y1276604D01*
X778277Y1276604D01*
X779463Y1277790D01*
X772447Y1283722D02*
X767702Y1283722D01*
X772447Y1283722D02*
X772447Y1276604D01*
X767702Y1276604D01*
X770074Y1280163D02*
X772447Y1280163D01*
X1566626Y1276186D02*
X1567812Y1277372D01*
X1570185Y1277372D01*
X1571371Y1276186D01*
X1571371Y1271440D01*
X1570185Y1270254D01*
X1567812Y1270254D01*
X1566626Y1271440D01*
X1564355Y1270254D02*
X1564355Y1274999D01*
X1561982Y1277372D01*
X1559609Y1274999D01*
X1559609Y1270254D01*
X1559609Y1273813D02*
X1564355Y1273813D01*
X1553779Y1277372D02*
X1552593Y1276186D01*
X1553779Y1277372D02*
X1556152Y1277372D01*
X1557338Y1276186D01*
X1557338Y1274999D01*
X1556152Y1273813D01*
X1553779Y1273813D01*
X1552593Y1272627D01*
X1552593Y1271440D01*
X1553779Y1270254D01*
X1556152Y1270254D01*
X1557338Y1271440D01*
X1550322Y1277372D02*
X1545577Y1277372D01*
X1550322Y1277372D02*
X1550322Y1270254D01*
X1545577Y1270254D01*
X1547949Y1273813D02*
X1550322Y1273813D01*
X285112Y642372D02*
X283926Y641186D01*
X285112Y642372D02*
X287485Y642372D01*
X288671Y641186D01*
X288671Y636440D01*
X287485Y635254D01*
X285112Y635254D01*
X283926Y636440D01*
X281655Y635254D02*
X281655Y639999D01*
X279282Y642372D01*
X276909Y639999D01*
X276909Y635254D01*
X276909Y638813D02*
X281655Y638813D01*
X271079Y642372D02*
X269893Y641186D01*
X271079Y642372D02*
X273452Y642372D01*
X274638Y641186D01*
X274638Y639999D01*
X273452Y638813D01*
X271079Y638813D01*
X269893Y637627D01*
X269893Y636440D01*
X271079Y635254D01*
X273452Y635254D01*
X274638Y636440D01*
X267622Y642372D02*
X262877Y642372D01*
X267622Y642372D02*
X267622Y635254D01*
X262877Y635254D01*
X265249Y638813D02*
X267622Y638813D01*
X791926Y437986D02*
X793112Y439172D01*
X795485Y439172D01*
X796671Y437986D01*
X796671Y433240D01*
X795485Y432054D01*
X793112Y432054D01*
X791926Y433240D01*
X789655Y432054D02*
X789655Y436799D01*
X787282Y439172D01*
X784909Y436799D01*
X784909Y432054D01*
X784909Y435613D02*
X789655Y435613D01*
X779079Y439172D02*
X777893Y437986D01*
X779079Y439172D02*
X781452Y439172D01*
X782638Y437986D01*
X782638Y436799D01*
X781452Y435613D01*
X779079Y435613D01*
X777893Y434427D01*
X777893Y433240D01*
X779079Y432054D01*
X781452Y432054D01*
X782638Y433240D01*
X775622Y439172D02*
X770877Y439172D01*
X775622Y439172D02*
X775622Y432054D01*
X770877Y432054D01*
X773249Y435613D02*
X775622Y435613D01*
X43812Y13722D02*
X42626Y12536D01*
X43812Y13722D02*
X46185Y13722D01*
X47371Y12536D01*
X47371Y7790D01*
X46185Y6604D01*
X43812Y6604D01*
X42626Y7790D01*
X40355Y6604D02*
X40355Y11349D01*
X37982Y13722D01*
X35609Y11349D01*
X35609Y6604D01*
X35609Y10163D02*
X40355Y10163D01*
X29779Y13722D02*
X28593Y12536D01*
X29779Y13722D02*
X32152Y13722D01*
X33338Y12536D01*
X33338Y11349D01*
X32152Y10163D01*
X29779Y10163D01*
X28593Y8977D01*
X28593Y7790D01*
X29779Y6604D01*
X32152Y6604D01*
X33338Y7790D01*
X26322Y13722D02*
X21577Y13722D01*
X26322Y13722D02*
X26322Y6604D01*
X21577Y6604D01*
X23949Y10163D02*
X26322Y10163D01*
X785576Y104611D02*
X786762Y105797D01*
X789135Y105797D01*
X790321Y104611D01*
X790321Y99865D01*
X789135Y98679D01*
X786762Y98679D01*
X785576Y99865D01*
X783305Y98679D02*
X783305Y103424D01*
X780932Y105797D01*
X778559Y103424D01*
X778559Y98679D01*
X778559Y102238D02*
X783305Y102238D01*
X772729Y105797D02*
X771543Y104611D01*
X772729Y105797D02*
X775102Y105797D01*
X776288Y104611D01*
X776288Y103424D01*
X775102Y102238D01*
X772729Y102238D01*
X771543Y101052D01*
X771543Y99865D01*
X772729Y98679D01*
X775102Y98679D01*
X776288Y99865D01*
X769272Y105797D02*
X764527Y105797D01*
X769272Y105797D02*
X769272Y98679D01*
X764527Y98679D01*
X766899Y102238D02*
X769272Y102238D01*
X1145984Y604454D02*
X1150729Y604454D01*
X1153102Y606827D01*
X1150729Y609199D01*
X1145984Y609199D01*
X1149543Y609199D02*
X1149543Y604454D01*
X1150729Y611470D02*
X1145984Y611470D01*
X1148357Y611470D02*
X1150729Y613843D01*
X1150729Y615029D01*
X1153102Y622063D02*
X1145984Y622063D01*
X1145984Y618504D01*
X1147170Y617317D01*
X1149543Y617317D01*
X1150729Y618504D01*
X1150729Y622063D01*
X1150729Y624334D02*
X1147170Y624334D01*
X1145984Y625520D01*
X1145984Y629079D01*
X1150729Y629079D01*
X1150729Y631350D02*
X1150729Y632536D01*
X1145984Y632536D01*
X1145984Y631350D02*
X1145984Y633723D01*
X1153102Y632536D02*
X1154288Y632536D01*
X1150729Y636028D02*
X1145984Y636028D01*
X1150729Y636028D02*
X1150729Y639587D01*
X1149543Y640773D01*
X1145984Y640773D01*
X1145984Y644230D02*
X1145984Y646603D01*
X1147170Y647789D01*
X1149543Y647789D01*
X1150729Y646603D01*
X1150729Y644230D01*
X1149543Y643044D01*
X1147170Y643044D01*
X1145984Y644230D01*
X1145984Y657077D02*
X1153102Y657077D01*
X1150729Y659450D01*
X1153102Y661822D01*
X1145984Y661822D01*
X1145984Y665280D02*
X1145984Y667652D01*
X1145984Y665280D02*
X1147170Y664093D01*
X1149543Y664093D01*
X1150729Y665280D01*
X1150729Y667652D01*
X1149543Y668839D01*
X1148357Y668839D01*
X1148357Y664093D01*
X1143611Y673482D02*
X1143611Y674669D01*
X1144798Y675855D01*
X1150729Y675855D01*
X1150729Y672296D01*
X1149543Y671110D01*
X1147170Y671110D01*
X1145984Y672296D01*
X1145984Y675855D01*
X1150729Y679312D02*
X1150729Y681685D01*
X1149543Y682871D01*
X1145984Y682871D01*
X1145984Y679312D01*
X1147170Y678126D01*
X1148357Y679312D01*
X1148357Y682871D01*
X1145984Y692159D02*
X1145984Y696904D01*
X1145984Y692159D02*
X1150729Y696904D01*
X1151916Y696904D01*
X1153102Y695718D01*
X1153102Y693345D01*
X1151916Y692159D01*
X1153102Y699175D02*
X1153102Y703920D01*
X1153102Y699175D02*
X1149543Y699175D01*
X1150729Y701548D01*
X1150729Y702734D01*
X1149543Y703920D01*
X1147170Y703920D01*
X1145984Y702734D01*
X1145984Y700361D01*
X1147170Y699175D01*
X1151916Y708564D02*
X1153102Y710937D01*
X1151916Y708564D02*
X1149543Y706191D01*
X1147170Y706191D01*
X1145984Y707378D01*
X1145984Y709750D01*
X1147170Y710937D01*
X1148357Y710937D01*
X1149543Y709750D01*
X1149543Y706191D01*
X1147170Y713208D02*
X1151916Y713208D01*
X1153102Y714394D01*
X1153102Y716767D01*
X1151916Y717953D01*
X1147170Y717953D01*
X1145984Y716767D01*
X1145984Y714394D01*
X1147170Y713208D01*
X1151916Y717953D01*
X1134554Y606827D02*
X1136927Y604454D01*
X1139299Y604454D01*
X1141672Y606827D01*
X1139299Y609132D02*
X1132181Y609132D01*
X1139299Y609132D02*
X1139299Y612691D01*
X1138113Y613877D01*
X1135740Y613877D01*
X1134554Y612691D01*
X1134554Y609132D01*
X1141672Y616148D02*
X1141672Y617334D01*
X1134554Y617334D01*
X1134554Y616148D02*
X1134554Y618521D01*
X1135740Y620826D02*
X1139299Y620826D01*
X1135740Y620826D02*
X1134554Y622012D01*
X1134554Y625571D01*
X1139299Y625571D01*
X1132181Y630215D02*
X1132181Y631401D01*
X1133368Y632587D01*
X1139299Y632587D01*
X1139299Y629028D01*
X1138113Y627842D01*
X1135740Y627842D01*
X1134554Y629028D01*
X1134554Y632587D01*
X1139299Y641875D02*
X1139299Y643061D01*
X1134554Y643061D01*
X1134554Y641875D02*
X1134554Y644247D01*
X1141672Y643061D02*
X1142858Y643061D01*
X1139299Y646552D02*
X1134554Y646552D01*
X1139299Y646552D02*
X1139299Y650111D01*
X1138113Y651298D01*
X1134554Y651298D01*
X1135740Y661771D02*
X1140486Y661771D01*
X1135740Y661771D02*
X1134554Y662958D01*
X1139299Y662958D02*
X1139299Y660585D01*
X1141672Y665263D02*
X1134554Y665263D01*
X1138113Y665263D02*
X1139299Y666449D01*
X1139299Y668822D01*
X1138113Y670008D01*
X1134554Y670008D01*
X1139299Y672279D02*
X1139299Y673465D01*
X1134554Y673465D01*
X1134554Y672279D02*
X1134554Y674652D01*
X1141672Y673465D02*
X1142858Y673465D01*
X1134554Y676957D02*
X1134554Y680516D01*
X1135740Y681702D01*
X1136927Y680516D01*
X1136927Y678143D01*
X1138113Y676957D01*
X1139299Y678143D01*
X1139299Y681702D01*
X1134554Y690989D02*
X1134554Y694548D01*
X1135740Y695735D01*
X1136927Y694548D01*
X1136927Y692176D01*
X1138113Y690989D01*
X1139299Y692176D01*
X1139299Y695735D01*
X1139299Y698006D02*
X1139299Y699192D01*
X1134554Y699192D01*
X1134554Y698006D02*
X1134554Y700378D01*
X1141672Y699192D02*
X1142858Y699192D01*
X1141672Y707429D02*
X1134554Y707429D01*
X1134554Y703870D01*
X1135740Y702683D01*
X1138113Y702683D01*
X1139299Y703870D01*
X1139299Y707429D01*
X1134554Y710886D02*
X1134554Y713259D01*
X1134554Y710886D02*
X1135740Y709700D01*
X1138113Y709700D01*
X1139299Y710886D01*
X1139299Y713259D01*
X1138113Y714445D01*
X1136927Y714445D01*
X1136927Y709700D01*
X1134554Y724919D02*
X1140486Y724919D01*
X1141672Y726105D01*
X1138113Y726105D02*
X1138113Y723732D01*
X1139299Y729596D02*
X1139299Y731969D01*
X1138113Y733155D01*
X1134554Y733155D01*
X1134554Y729596D01*
X1135740Y728410D01*
X1136927Y729596D01*
X1136927Y733155D01*
X1139299Y736613D02*
X1139299Y740172D01*
X1139299Y736613D02*
X1138113Y735426D01*
X1135740Y735426D01*
X1134554Y736613D01*
X1134554Y740172D01*
X1139299Y742443D02*
X1139299Y743629D01*
X1134554Y743629D01*
X1134554Y742443D02*
X1134554Y744815D01*
X1141672Y743629D02*
X1142858Y743629D01*
X1139299Y747120D02*
X1134554Y747120D01*
X1139299Y747120D02*
X1139299Y750679D01*
X1138113Y751866D01*
X1134554Y751866D01*
X1132181Y756509D02*
X1132181Y757696D01*
X1133368Y758882D01*
X1139299Y758882D01*
X1139299Y755323D01*
X1138113Y754137D01*
X1135740Y754137D01*
X1134554Y755323D01*
X1134554Y758882D01*
X1139299Y768170D02*
X1139299Y769356D01*
X1134554Y769356D01*
X1134554Y768170D02*
X1134554Y770542D01*
X1141672Y769356D02*
X1142858Y769356D01*
X1139299Y772847D02*
X1134554Y772847D01*
X1139299Y772847D02*
X1139299Y776406D01*
X1138113Y777592D01*
X1134554Y777592D01*
X1135740Y779863D02*
X1139299Y779863D01*
X1135740Y779863D02*
X1134554Y781050D01*
X1135740Y782236D01*
X1134554Y783423D01*
X1135740Y784609D01*
X1139299Y784609D01*
X1139299Y788066D02*
X1139299Y790439D01*
X1138113Y791625D01*
X1134554Y791625D01*
X1134554Y788066D01*
X1135740Y786880D01*
X1136927Y788066D01*
X1136927Y791625D01*
X1139299Y793896D02*
X1134554Y793896D01*
X1136927Y793896D02*
X1139299Y796269D01*
X1139299Y797455D01*
X1141672Y804489D02*
X1134554Y804489D01*
X1134554Y800930D01*
X1135740Y799743D01*
X1138113Y799743D01*
X1139299Y800930D01*
X1139299Y804489D01*
X1134554Y806760D02*
X1134554Y810319D01*
X1135740Y811505D01*
X1136927Y810319D01*
X1136927Y807946D01*
X1138113Y806760D01*
X1139299Y807946D01*
X1139299Y811505D01*
X1136927Y816149D02*
X1134554Y813776D01*
X1136927Y816149D02*
X1139299Y816149D01*
X1141672Y813776D01*
X614432Y109474D02*
X608500Y109474D01*
X607314Y110660D01*
X607314Y113033D01*
X608500Y114219D01*
X614432Y114219D01*
X614432Y120049D02*
X613246Y121236D01*
X614432Y120049D02*
X614432Y117677D01*
X613246Y116490D01*
X612059Y116490D01*
X610873Y117677D01*
X610873Y120049D01*
X609687Y121236D01*
X608500Y121236D01*
X607314Y120049D01*
X607314Y117677D01*
X608500Y116490D01*
X607314Y123507D02*
X614432Y123507D01*
X614432Y127066D01*
X613246Y128252D01*
X612059Y128252D01*
X610873Y127066D01*
X609687Y128252D01*
X608500Y128252D01*
X607314Y127066D01*
X607314Y123507D01*
X610873Y123507D02*
X610873Y127066D01*
X607314Y137540D02*
X614432Y137540D01*
X610873Y137540D02*
X610873Y142285D01*
X614432Y142285D02*
X607314Y142285D01*
X607314Y145742D02*
X607314Y148115D01*
X608500Y149301D01*
X610873Y149301D01*
X612059Y148115D01*
X612059Y145742D01*
X610873Y144556D01*
X608500Y144556D01*
X607314Y145742D01*
X607314Y151572D02*
X607314Y155131D01*
X608500Y156318D01*
X609687Y155131D01*
X609687Y152759D01*
X610873Y151572D01*
X612059Y152759D01*
X612059Y156318D01*
X613246Y159775D02*
X608500Y159775D01*
X607314Y160961D01*
X612059Y160961D02*
X612059Y158589D01*
X614432Y173842D02*
X613246Y175028D01*
X614432Y173842D02*
X614432Y171469D01*
X613246Y170283D01*
X612059Y170283D01*
X610873Y171469D01*
X610873Y173842D01*
X609687Y175028D01*
X608500Y175028D01*
X607314Y173842D01*
X607314Y171469D01*
X608500Y170283D01*
X607314Y177299D02*
X614432Y177299D01*
X612059Y178485D02*
X610873Y177299D01*
X612059Y178485D02*
X612059Y180858D01*
X610873Y182044D01*
X607314Y182044D01*
X612059Y184315D02*
X612059Y185502D01*
X607314Y185502D01*
X607314Y186688D02*
X607314Y184315D01*
X614432Y185502D02*
X615618Y185502D01*
X607314Y190179D02*
X607314Y192552D01*
X607314Y190179D02*
X608500Y188993D01*
X610873Y188993D01*
X612059Y190179D01*
X612059Y192552D01*
X610873Y193738D01*
X609687Y193738D01*
X609687Y188993D01*
X614432Y196009D02*
X614432Y197196D01*
X607314Y197196D01*
X607314Y198382D02*
X607314Y196009D01*
X607314Y205432D02*
X614432Y205432D01*
X607314Y205432D02*
X607314Y201873D01*
X608500Y200687D01*
X610873Y200687D01*
X612059Y201873D01*
X612059Y205432D01*
X595884Y111847D02*
X598257Y109474D01*
X600629Y109474D01*
X603002Y111847D01*
X600629Y114152D02*
X593511Y114152D01*
X600629Y114152D02*
X600629Y117711D01*
X599443Y118897D01*
X597070Y118897D01*
X595884Y117711D01*
X595884Y114152D01*
X603002Y121168D02*
X603002Y122354D01*
X595884Y122354D01*
X595884Y121168D02*
X595884Y123541D01*
X597070Y125846D02*
X600629Y125846D01*
X597070Y125846D02*
X595884Y127032D01*
X595884Y130591D01*
X600629Y130591D01*
X593511Y135235D02*
X593511Y136421D01*
X594698Y137607D01*
X600629Y137607D01*
X600629Y134048D01*
X599443Y132862D01*
X597070Y132862D01*
X595884Y134048D01*
X595884Y137607D01*
X600629Y146895D02*
X600629Y148081D01*
X595884Y148081D01*
X595884Y146895D02*
X595884Y149267D01*
X603002Y148081D02*
X604188Y148081D01*
X600629Y151572D02*
X595884Y151572D01*
X600629Y151572D02*
X600629Y155131D01*
X599443Y156318D01*
X595884Y156318D01*
X597070Y166791D02*
X601816Y166791D01*
X597070Y166791D02*
X595884Y167978D01*
X600629Y167978D02*
X600629Y165605D01*
X603002Y170283D02*
X595884Y170283D01*
X599443Y170283D02*
X600629Y171469D01*
X600629Y173842D01*
X599443Y175028D01*
X595884Y175028D01*
X600629Y177299D02*
X600629Y178485D01*
X595884Y178485D01*
X595884Y177299D02*
X595884Y179672D01*
X603002Y178485D02*
X604188Y178485D01*
X595884Y181977D02*
X595884Y185536D01*
X597070Y186722D01*
X598257Y185536D01*
X598257Y183163D01*
X599443Y181977D01*
X600629Y183163D01*
X600629Y186722D01*
X595884Y196009D02*
X595884Y199568D01*
X597070Y200755D01*
X598257Y199568D01*
X598257Y197196D01*
X599443Y196009D01*
X600629Y197196D01*
X600629Y200755D01*
X600629Y203026D02*
X600629Y204212D01*
X595884Y204212D01*
X595884Y203026D02*
X595884Y205398D01*
X603002Y204212D02*
X604188Y204212D01*
X603002Y212449D02*
X595884Y212449D01*
X595884Y208890D01*
X597070Y207703D01*
X599443Y207703D01*
X600629Y208890D01*
X600629Y212449D01*
X595884Y215906D02*
X595884Y218279D01*
X595884Y215906D02*
X597070Y214720D01*
X599443Y214720D01*
X600629Y215906D01*
X600629Y218279D01*
X599443Y219465D01*
X598257Y219465D01*
X598257Y214720D01*
X595884Y229939D02*
X601816Y229939D01*
X603002Y231125D01*
X599443Y231125D02*
X599443Y228752D01*
X600629Y234616D02*
X600629Y236989D01*
X599443Y238175D01*
X595884Y238175D01*
X595884Y234616D01*
X597070Y233430D01*
X598257Y234616D01*
X598257Y238175D01*
X600629Y241633D02*
X600629Y245192D01*
X600629Y241633D02*
X599443Y240446D01*
X597070Y240446D01*
X595884Y241633D01*
X595884Y245192D01*
X600629Y247463D02*
X600629Y248649D01*
X595884Y248649D01*
X595884Y247463D02*
X595884Y249835D01*
X603002Y248649D02*
X604188Y248649D01*
X600629Y252140D02*
X595884Y252140D01*
X600629Y252140D02*
X600629Y255699D01*
X599443Y256886D01*
X595884Y256886D01*
X593511Y261529D02*
X593511Y262716D01*
X594698Y263902D01*
X600629Y263902D01*
X600629Y260343D01*
X599443Y259157D01*
X597070Y259157D01*
X595884Y260343D01*
X595884Y263902D01*
X595884Y274376D02*
X595884Y276749D01*
X597070Y277935D01*
X599443Y277935D01*
X600629Y276749D01*
X600629Y274376D01*
X599443Y273190D01*
X597070Y273190D01*
X595884Y274376D01*
X597070Y280206D02*
X600629Y280206D01*
X597070Y280206D02*
X595884Y281392D01*
X595884Y284951D01*
X600629Y284951D01*
X601816Y288409D02*
X597070Y288409D01*
X595884Y289595D01*
X600629Y289595D02*
X600629Y287222D01*
X600629Y291900D02*
X597070Y291900D01*
X595884Y293086D01*
X597070Y294273D01*
X595884Y295459D01*
X597070Y296645D01*
X600629Y296645D01*
X600629Y300103D02*
X600629Y302475D01*
X599443Y303662D01*
X595884Y303662D01*
X595884Y300103D01*
X597070Y298916D01*
X598257Y300103D01*
X598257Y303662D01*
X600629Y305933D02*
X595884Y305933D01*
X598257Y305933D02*
X600629Y308305D01*
X600629Y309492D01*
X603002Y316525D02*
X595884Y316525D01*
X595884Y312966D01*
X597070Y311780D01*
X599443Y311780D01*
X600629Y312966D01*
X600629Y316525D01*
X595884Y318796D02*
X595884Y322355D01*
X597070Y323541D01*
X598257Y322355D01*
X598257Y319982D01*
X599443Y318796D01*
X600629Y319982D01*
X600629Y323541D01*
X598257Y328185D02*
X595884Y325812D01*
X598257Y328185D02*
X600629Y328185D01*
X603002Y325812D01*
D11*
X509226Y546481D02*
X510794Y548049D01*
X509226Y546481D02*
X506091Y546481D01*
X504523Y548049D01*
X504523Y554319D01*
X506091Y555887D01*
X509226Y555887D01*
X510794Y554319D01*
X510794Y552752D01*
X509226Y551184D01*
X504523Y551184D01*
X501439Y549616D02*
X501439Y555887D01*
X501439Y549616D02*
X498303Y546481D01*
X495168Y549616D01*
X495168Y555887D01*
X482728Y546481D02*
X478025Y546481D01*
X476458Y548049D01*
X478025Y549616D01*
X481161Y549616D01*
X482728Y551184D01*
X481161Y552752D01*
X476458Y552752D01*
X473373Y552752D02*
X473373Y548049D01*
X471806Y546481D01*
X470238Y548049D01*
X468670Y546481D01*
X467103Y548049D01*
X467103Y552752D01*
X464018Y552752D02*
X462450Y552752D01*
X462450Y546481D01*
X460883Y546481D02*
X464018Y546481D01*
X462450Y555887D02*
X462450Y557455D01*
X456214Y554319D02*
X456214Y548049D01*
X454646Y546481D01*
X454646Y552752D02*
X457781Y552752D01*
X449977Y552752D02*
X445274Y552752D01*
X449977Y552752D02*
X451545Y551184D01*
X451545Y548049D01*
X449977Y546481D01*
X445274Y546481D01*
X442189Y546481D02*
X442189Y555887D01*
X440622Y552752D02*
X442189Y551184D01*
X440622Y552752D02*
X437486Y552752D01*
X435919Y551184D01*
X435919Y546481D01*
X432834Y552752D02*
X431266Y552752D01*
X431266Y546481D01*
X429699Y546481D02*
X432834Y546481D01*
X431266Y555887D02*
X431266Y557455D01*
X426597Y552752D02*
X426597Y546481D01*
X426597Y552752D02*
X421894Y552752D01*
X420327Y551184D01*
X420327Y546481D01*
X414107Y543346D02*
X412539Y543346D01*
X410971Y544913D01*
X410971Y552752D01*
X415675Y552752D01*
X417242Y551184D01*
X417242Y548049D01*
X415675Y546481D01*
X410971Y546481D01*
X398532Y546481D02*
X398532Y552752D01*
X398532Y549616D02*
X395396Y552752D01*
X393829Y552752D01*
X389168Y546481D02*
X386033Y546481D01*
X389168Y546481D02*
X390736Y548049D01*
X390736Y551184D01*
X389168Y552752D01*
X386033Y552752D01*
X384465Y551184D01*
X384465Y549616D01*
X390736Y549616D01*
X378245Y543346D02*
X376678Y543346D01*
X375110Y544913D01*
X375110Y552752D01*
X379813Y552752D01*
X381381Y551184D01*
X381381Y548049D01*
X379813Y546481D01*
X375110Y546481D01*
X372025Y548049D02*
X372025Y552752D01*
X372025Y548049D02*
X370458Y546481D01*
X365755Y546481D01*
X365755Y552752D01*
X362670Y555887D02*
X361103Y555887D01*
X361103Y546481D01*
X362670Y546481D02*
X359535Y546481D01*
X354866Y552752D02*
X351730Y552752D01*
X350163Y551184D01*
X350163Y546481D01*
X354866Y546481D01*
X356433Y548049D01*
X354866Y549616D01*
X350163Y549616D01*
X345511Y548049D02*
X345511Y554319D01*
X345511Y548049D02*
X343943Y546481D01*
X343943Y552752D02*
X347078Y552752D01*
X339274Y546481D02*
X336139Y546481D01*
X334571Y548049D01*
X334571Y551184D01*
X336139Y552752D01*
X339274Y552752D01*
X340842Y551184D01*
X340842Y548049D01*
X339274Y546481D01*
X331486Y546481D02*
X331486Y552752D01*
X328351Y552752D02*
X331486Y549616D01*
X328351Y552752D02*
X326783Y552752D01*
D16*
X1404874Y1041064D02*
X1405848Y1040089D01*
X1404874Y1041064D02*
X1404874Y1042038D01*
X1405848Y1043013D01*
X1410721Y1043013D01*
X1410721Y1043987D02*
X1410721Y1042038D01*
X1408772Y1045936D02*
X1405848Y1045936D01*
X1404874Y1046911D01*
X1404874Y1049834D01*
X1408772Y1049834D01*
X1408772Y1051783D02*
X1404874Y1051783D01*
X1408772Y1051783D02*
X1408772Y1052757D01*
X1407797Y1053732D01*
X1404874Y1053732D01*
X1407797Y1053732D02*
X1408772Y1054706D01*
X1407797Y1055681D01*
X1404874Y1055681D01*
X1402925Y1057630D02*
X1408772Y1057630D01*
X1408772Y1060553D01*
X1407797Y1061528D01*
X1405848Y1061528D01*
X1404874Y1060553D01*
X1404874Y1057630D01*
X1405848Y1070298D02*
X1409746Y1070298D01*
X1405848Y1070298D02*
X1404874Y1071273D01*
X1408772Y1071273D02*
X1408772Y1069324D01*
X1404874Y1074196D02*
X1404874Y1076145D01*
X1405848Y1077120D01*
X1407797Y1077120D01*
X1408772Y1076145D01*
X1408772Y1074196D01*
X1407797Y1073222D01*
X1405848Y1073222D01*
X1404874Y1074196D01*
X1404874Y1084916D02*
X1410721Y1084916D01*
X1404874Y1084916D02*
X1404874Y1087839D01*
X1405848Y1088814D01*
X1407797Y1088814D01*
X1408772Y1087839D01*
X1408772Y1084916D01*
X1408772Y1090763D02*
X1405848Y1090763D01*
X1404874Y1091737D01*
X1404874Y1094661D01*
X1403900Y1094661D02*
X1408772Y1094661D01*
X1403900Y1094661D02*
X1402925Y1093686D01*
X1402925Y1092712D01*
X1402925Y1096610D02*
X1408772Y1096610D01*
X1408772Y1099533D01*
X1407797Y1100508D01*
X1405848Y1100508D01*
X1404874Y1099533D01*
X1404874Y1096610D01*
X1408772Y1103431D02*
X1408772Y1105380D01*
X1407797Y1106355D01*
X1404874Y1106355D01*
X1404874Y1103431D01*
X1405848Y1102457D01*
X1406823Y1103431D01*
X1406823Y1106355D01*
X1404874Y1108304D02*
X1404874Y1111227D01*
X1405848Y1112202D01*
X1406823Y1111227D01*
X1406823Y1109278D01*
X1407797Y1108304D01*
X1408772Y1109278D01*
X1408772Y1112202D01*
X1404874Y1114151D02*
X1404874Y1117074D01*
X1405848Y1118049D01*
X1406823Y1117074D01*
X1406823Y1115125D01*
X1407797Y1114151D01*
X1408772Y1115125D01*
X1408772Y1118049D01*
X1410721Y1125845D02*
X1404874Y1125845D01*
X1410721Y1125845D02*
X1410721Y1128768D01*
X1409746Y1129743D01*
X1407797Y1129743D01*
X1406823Y1128768D01*
X1406823Y1125845D01*
X1406823Y1127794D02*
X1404874Y1129743D01*
X1408772Y1131692D02*
X1410721Y1133641D01*
X1404874Y1133641D01*
X1404874Y1131692D02*
X1404874Y1135590D01*
X1077976Y1257686D02*
X1074248Y1257686D01*
X1077976Y1257686D02*
X1077976Y1254889D01*
X1076112Y1255822D01*
X1075180Y1255822D01*
X1074248Y1254889D01*
X1074248Y1253025D01*
X1075180Y1252093D01*
X1077044Y1252093D01*
X1077976Y1253025D01*
X1072363Y1252093D02*
X1072363Y1257686D01*
X1072363Y1253957D02*
X1069567Y1252093D01*
X1072363Y1253957D02*
X1069567Y1255822D01*
X1061140Y1252093D02*
X1059276Y1252093D01*
X1058344Y1253025D01*
X1058344Y1254889D01*
X1059276Y1255822D01*
X1061140Y1255822D01*
X1062072Y1254889D01*
X1062072Y1253025D01*
X1061140Y1252093D01*
X1056459Y1252093D02*
X1056459Y1255822D01*
X1054595Y1255822D02*
X1056459Y1253957D01*
X1054595Y1255822D02*
X1053663Y1255822D01*
X1046168Y1255822D02*
X1044304Y1257686D01*
X1044304Y1252093D01*
X1046168Y1252093D02*
X1042440Y1252093D01*
X1040555Y1253025D02*
X1040555Y1256754D01*
X1039623Y1257686D01*
X1037759Y1257686D01*
X1036827Y1256754D01*
X1036827Y1253025D01*
X1037759Y1252093D01*
X1039623Y1252093D01*
X1040555Y1253025D01*
X1036827Y1256754D01*
X1034942Y1257686D02*
X1034942Y1252093D01*
X1034942Y1253957D02*
X1032146Y1252093D01*
X1034942Y1253957D02*
X1032146Y1255822D01*
X1077044Y1247610D02*
X1077044Y1243881D01*
X1076112Y1242949D01*
X1076112Y1246678D02*
X1077976Y1246678D01*
X1074234Y1246678D02*
X1074234Y1242949D01*
X1074234Y1244813D02*
X1072370Y1246678D01*
X1071438Y1246678D01*
X1069556Y1246678D02*
X1068624Y1246678D01*
X1068624Y1242949D01*
X1069556Y1242949D02*
X1067692Y1242949D01*
X1068624Y1248542D02*
X1068624Y1249474D01*
X1065814Y1246678D02*
X1065814Y1242949D01*
X1065814Y1246678D02*
X1064882Y1246678D01*
X1063950Y1245745D01*
X1063950Y1242949D01*
X1063950Y1245745D02*
X1063018Y1246678D01*
X1062086Y1245745D01*
X1062086Y1242949D01*
X1054588Y1241085D02*
X1054588Y1246678D01*
X1051792Y1246678D01*
X1050860Y1245745D01*
X1050860Y1243881D01*
X1051792Y1242949D01*
X1054588Y1242949D01*
X1048043Y1242949D02*
X1046179Y1242949D01*
X1045247Y1243881D01*
X1045247Y1245745D01*
X1046179Y1246678D01*
X1048043Y1246678D01*
X1048975Y1245745D01*
X1048975Y1243881D01*
X1048043Y1242949D01*
X1042430Y1243881D02*
X1042430Y1247610D01*
X1042430Y1243881D02*
X1041498Y1242949D01*
X1041498Y1246678D02*
X1043362Y1246678D01*
X1039620Y1243881D02*
X1039620Y1242949D01*
X1039620Y1243881D02*
X1038688Y1243881D01*
X1038688Y1242949D01*
X1039620Y1242949D01*
D14*
X243072Y1225307D02*
X243072Y1212088D01*
X249682Y1218698D02*
X243072Y1225307D01*
X240869Y1218698D02*
X249682Y1218698D01*
X236585Y1214291D02*
X236585Y1212088D01*
X236585Y1214291D02*
X234382Y1214291D01*
X234382Y1212088D01*
X236585Y1212088D01*
X230036Y1212088D02*
X221223Y1212088D01*
X230036Y1212088D02*
X221223Y1220901D01*
X221223Y1223104D01*
X223427Y1225307D01*
X227833Y1225307D01*
X230036Y1223104D01*
X216939Y1225307D02*
X208126Y1225307D01*
X216939Y1225307D02*
X216939Y1218698D01*
X212532Y1220901D01*
X210329Y1220901D01*
X208126Y1218698D01*
X208126Y1214291D01*
X210329Y1212088D01*
X214736Y1212088D01*
X216939Y1214291D01*
X203842Y1212088D02*
X203842Y1220901D01*
X199435Y1225307D01*
X195029Y1220901D01*
X195029Y1212088D01*
X195029Y1218698D02*
X203842Y1218698D01*
X177647Y1220901D02*
X177647Y1212088D01*
X177647Y1220901D02*
X175444Y1220901D01*
X173241Y1218698D01*
X173241Y1212088D01*
X173241Y1218698D02*
X171038Y1220901D01*
X168834Y1218698D01*
X168834Y1212088D01*
X162347Y1220901D02*
X157940Y1220901D01*
X155737Y1218698D01*
X155737Y1212088D01*
X162347Y1212088D01*
X164550Y1214291D01*
X162347Y1216494D01*
X155737Y1216494D01*
X151453Y1220901D02*
X142640Y1212088D01*
X151453Y1212088D02*
X142640Y1220901D01*
X553671Y1226278D02*
X555620Y1228227D01*
X559518Y1228227D01*
X561467Y1226278D01*
X561467Y1218482D01*
X559518Y1216533D01*
X555620Y1216533D01*
X553671Y1218482D01*
X553671Y1222380D01*
X557569Y1222380D01*
X549773Y1216533D02*
X549773Y1228227D01*
X541977Y1216533D01*
X541977Y1228227D01*
X538079Y1228227D02*
X538079Y1216533D01*
X532232Y1216533D01*
X530283Y1218482D01*
X530283Y1226278D01*
X532232Y1228227D01*
X538079Y1228227D01*
D16*
X580387Y648722D02*
X579201Y647536D01*
X580387Y648722D02*
X582760Y648722D01*
X583946Y647536D01*
X583946Y642790D01*
X582760Y641604D01*
X580387Y641604D01*
X579201Y642790D01*
X576930Y641604D02*
X576930Y646349D01*
X574557Y648722D01*
X572184Y646349D01*
X572184Y641604D01*
X572184Y645163D02*
X576930Y645163D01*
X566354Y648722D02*
X565168Y647536D01*
X566354Y648722D02*
X568727Y648722D01*
X569913Y647536D01*
X569913Y646349D01*
X568727Y645163D01*
X566354Y645163D01*
X565168Y643977D01*
X565168Y642790D01*
X566354Y641604D01*
X568727Y641604D01*
X569913Y642790D01*
X562897Y648722D02*
X558152Y648722D01*
X562897Y648722D02*
X562897Y641604D01*
X558152Y641604D01*
X560524Y645163D02*
X562897Y645163D01*
X947501Y644361D02*
X948687Y645547D01*
X951060Y645547D01*
X952246Y644361D01*
X952246Y639615D01*
X951060Y638429D01*
X948687Y638429D01*
X947501Y639615D01*
X945230Y638429D02*
X945230Y643174D01*
X942857Y645547D01*
X940484Y643174D01*
X940484Y638429D01*
X940484Y641988D02*
X945230Y641988D01*
X934654Y645547D02*
X933468Y644361D01*
X934654Y645547D02*
X937027Y645547D01*
X938213Y644361D01*
X938213Y643174D01*
X937027Y641988D01*
X934654Y641988D01*
X933468Y640802D01*
X933468Y639615D01*
X934654Y638429D01*
X937027Y638429D01*
X938213Y639615D01*
X931197Y645547D02*
X926452Y645547D01*
X931197Y645547D02*
X931197Y638429D01*
X926452Y638429D01*
X928824Y641988D02*
X931197Y641988D01*
X1520187Y26422D02*
X1519001Y25236D01*
X1520187Y26422D02*
X1522560Y26422D01*
X1523746Y25236D01*
X1523746Y20490D01*
X1522560Y19304D01*
X1520187Y19304D01*
X1519001Y20490D01*
X1516730Y19304D02*
X1516730Y24049D01*
X1514357Y26422D01*
X1511984Y24049D01*
X1511984Y19304D01*
X1511984Y22863D02*
X1516730Y22863D01*
X1506154Y26422D02*
X1504968Y25236D01*
X1506154Y26422D02*
X1508527Y26422D01*
X1509713Y25236D01*
X1509713Y24049D01*
X1508527Y22863D01*
X1506154Y22863D01*
X1504968Y21677D01*
X1504968Y20490D01*
X1506154Y19304D01*
X1508527Y19304D01*
X1509713Y20490D01*
X1502697Y26422D02*
X1497952Y26422D01*
X1502697Y26422D02*
X1502697Y19304D01*
X1497952Y19304D01*
X1500324Y22863D02*
X1502697Y22863D01*
D10*
X149573Y155618D02*
X146989Y158203D01*
X149573Y155618D02*
X149573Y150449D01*
X146989Y147864D01*
X144404Y147864D01*
X141820Y150449D01*
X141820Y155618D01*
X139235Y158203D01*
X136651Y158203D01*
X134066Y155618D01*
X134066Y150449D01*
X136651Y147864D01*
X134066Y165885D02*
X134066Y171054D01*
X134066Y165885D02*
X136651Y163301D01*
X141820Y163301D01*
X144404Y165885D01*
X144404Y171054D01*
X141820Y173639D01*
X139235Y173639D01*
X139235Y163301D01*
X134066Y178737D02*
X144404Y178737D01*
X139235Y178737D02*
X144404Y183906D01*
X144404Y186490D01*
X144404Y191600D02*
X144404Y194185D01*
X134066Y194185D01*
X134066Y196769D02*
X134066Y191600D01*
X149573Y194185D02*
X152158Y194185D01*
X144404Y204475D02*
X144404Y209644D01*
X141820Y212229D01*
X134066Y212229D01*
X134066Y204475D01*
X136651Y201891D01*
X139235Y204475D01*
X139235Y212229D01*
X149573Y217327D02*
X149573Y219911D01*
X134066Y219911D01*
X134066Y217327D02*
X134066Y222496D01*
X149573Y250807D02*
X146989Y253392D01*
X149573Y250807D02*
X149573Y245638D01*
X146989Y243053D01*
X136651Y243053D01*
X134066Y245638D01*
X134066Y250807D01*
X136651Y253392D01*
X134066Y261074D02*
X134066Y266243D01*
X136651Y268828D01*
X141820Y268828D01*
X144404Y266243D01*
X144404Y261074D01*
X141820Y258490D01*
X136651Y258490D01*
X134066Y261074D01*
X134066Y273926D02*
X144404Y273926D01*
X144404Y276510D01*
X141820Y279095D01*
X134066Y279095D01*
X141820Y279095D02*
X144404Y281679D01*
X141820Y284264D01*
X134066Y284264D01*
X134066Y289362D02*
X144404Y289362D01*
X144404Y291946D01*
X141820Y294531D01*
X134066Y294531D01*
X141820Y294531D02*
X144404Y297115D01*
X141820Y299700D01*
X134066Y299700D01*
X134066Y304798D02*
X134066Y312551D01*
X136651Y315136D01*
X139235Y312551D01*
X139235Y307382D01*
X141820Y304798D01*
X144404Y307382D01*
X144404Y315136D01*
D17*
X210185Y586105D02*
X210185Y598805D01*
X210185Y586105D02*
X216535Y579755D01*
X229235Y579755D02*
X235585Y586105D01*
X216535Y579755D02*
X210185Y573405D01*
X210185Y560705D01*
X216535Y554355D01*
X229235Y554355D02*
X235585Y560705D01*
X235585Y573405D01*
X229235Y579755D01*
X229235Y605155D02*
X216535Y605155D01*
X210185Y598805D01*
X229235Y605155D02*
X235585Y598805D01*
X235585Y586105D01*
X229235Y554355D02*
X216535Y554355D01*
D10*
X203972Y571470D02*
X192532Y571470D01*
X203972Y571470D02*
X203972Y577190D01*
X202065Y579097D01*
X198252Y579097D01*
X196345Y577190D01*
X196345Y571470D01*
X192532Y583164D02*
X203972Y583164D01*
X196345Y586977D02*
X192532Y583164D01*
X196345Y586977D02*
X192532Y590791D01*
X203972Y590791D01*
X203972Y594858D02*
X192532Y594858D01*
X203972Y594858D02*
X203972Y600578D01*
X202065Y602484D01*
X198252Y602484D01*
X196345Y600578D01*
X196345Y594858D01*
X196345Y598671D02*
X192532Y602484D01*
D15*
X1363199Y1009778D02*
X1363268Y1009850D01*
X1363334Y1009924D01*
X1363398Y1010002D01*
X1363458Y1010081D01*
X1363515Y1010163D01*
X1363569Y1010247D01*
X1363619Y1010333D01*
X1363666Y1010421D01*
X1363710Y1010511D01*
X1363750Y1010602D01*
X1363786Y1010695D01*
X1363819Y1010789D01*
X1363848Y1010885D01*
X1363873Y1010981D01*
X1363894Y1011078D01*
X1363912Y1011177D01*
X1363925Y1011275D01*
X1363935Y1011375D01*
X1363941Y1011474D01*
X1363943Y1011574D01*
X1363941Y1011674D01*
X1363935Y1011773D01*
X1363925Y1011873D01*
X1363912Y1011971D01*
X1363894Y1012070D01*
X1363873Y1012167D01*
X1363848Y1012263D01*
X1363819Y1012359D01*
X1363786Y1012453D01*
X1363750Y1012546D01*
X1363710Y1012637D01*
X1363666Y1012727D01*
X1363619Y1012815D01*
X1363569Y1012901D01*
X1363515Y1012985D01*
X1363458Y1013067D01*
X1363398Y1013146D01*
X1363334Y1013224D01*
X1363268Y1013298D01*
X1363199Y1013370D01*
X1352422Y999001D02*
X1352350Y998932D01*
X1352276Y998866D01*
X1352198Y998802D01*
X1352119Y998742D01*
X1352037Y998685D01*
X1351953Y998631D01*
X1351867Y998581D01*
X1351779Y998534D01*
X1351689Y998490D01*
X1351598Y998450D01*
X1351505Y998414D01*
X1351411Y998381D01*
X1351315Y998352D01*
X1351219Y998327D01*
X1351122Y998306D01*
X1351023Y998288D01*
X1350925Y998275D01*
X1350825Y998265D01*
X1350726Y998259D01*
X1350626Y998257D01*
X1350526Y998259D01*
X1350427Y998265D01*
X1350327Y998275D01*
X1350229Y998288D01*
X1350130Y998306D01*
X1350033Y998327D01*
X1349937Y998352D01*
X1349841Y998381D01*
X1349747Y998414D01*
X1349654Y998450D01*
X1349563Y998490D01*
X1349473Y998534D01*
X1349385Y998581D01*
X1349299Y998631D01*
X1349215Y998685D01*
X1349133Y998742D01*
X1349054Y998802D01*
X1348976Y998866D01*
X1348902Y998932D01*
X1348830Y999001D01*
X1316501Y1031330D02*
X1316432Y1031402D01*
X1316366Y1031476D01*
X1316302Y1031554D01*
X1316242Y1031633D01*
X1316185Y1031715D01*
X1316131Y1031799D01*
X1316081Y1031885D01*
X1316034Y1031973D01*
X1315990Y1032063D01*
X1315950Y1032154D01*
X1315914Y1032247D01*
X1315881Y1032341D01*
X1315852Y1032437D01*
X1315827Y1032533D01*
X1315806Y1032630D01*
X1315788Y1032729D01*
X1315775Y1032827D01*
X1315765Y1032927D01*
X1315759Y1033026D01*
X1315757Y1033126D01*
X1315759Y1033226D01*
X1315765Y1033325D01*
X1315775Y1033425D01*
X1315788Y1033523D01*
X1315806Y1033622D01*
X1315827Y1033719D01*
X1315852Y1033815D01*
X1315881Y1033911D01*
X1315914Y1034005D01*
X1315950Y1034098D01*
X1315990Y1034189D01*
X1316034Y1034279D01*
X1316081Y1034367D01*
X1316131Y1034453D01*
X1316185Y1034537D01*
X1316242Y1034619D01*
X1316302Y1034698D01*
X1316366Y1034776D01*
X1316432Y1034850D01*
X1316501Y1034922D01*
X1327278Y1045699D02*
X1327350Y1045768D01*
X1327424Y1045834D01*
X1327502Y1045898D01*
X1327581Y1045958D01*
X1327663Y1046015D01*
X1327747Y1046069D01*
X1327833Y1046119D01*
X1327921Y1046166D01*
X1328011Y1046210D01*
X1328102Y1046250D01*
X1328195Y1046286D01*
X1328289Y1046319D01*
X1328385Y1046348D01*
X1328481Y1046373D01*
X1328578Y1046394D01*
X1328677Y1046412D01*
X1328775Y1046425D01*
X1328875Y1046435D01*
X1328974Y1046441D01*
X1329074Y1046443D01*
X1329174Y1046441D01*
X1329273Y1046435D01*
X1329373Y1046425D01*
X1329471Y1046412D01*
X1329570Y1046394D01*
X1329667Y1046373D01*
X1329763Y1046348D01*
X1329859Y1046319D01*
X1329953Y1046286D01*
X1330046Y1046250D01*
X1330137Y1046210D01*
X1330227Y1046166D01*
X1330315Y1046119D01*
X1330401Y1046069D01*
X1330485Y1046015D01*
X1330567Y1045958D01*
X1330646Y1045898D01*
X1330724Y1045834D01*
X1330798Y1045768D01*
X1330870Y1045699D01*
X1363199Y1009778D02*
X1352422Y999001D01*
X1363199Y1013370D02*
X1360505Y1016064D01*
X1358709Y1016064D01*
X1346136Y1001695D02*
X1348830Y999001D01*
X1346136Y1001695D02*
X1346136Y1003491D01*
X1333564Y1041209D02*
X1333564Y1043005D01*
X1333564Y1041209D02*
X1358709Y1016064D01*
X1320991Y1028636D02*
X1319195Y1028636D01*
X1320991Y1028636D02*
X1346136Y1003491D01*
X1333564Y1043005D02*
X1330870Y1045699D01*
X1316501Y1031330D02*
X1319195Y1028636D01*
X1316501Y1034922D02*
X1327278Y1045699D01*
D18*
G36*
X1320991Y1044801D02*
X1323685Y1042107D01*
X1320093Y1038515D01*
X1317399Y1041209D01*
X1320991Y1044801D01*
G37*
G36*
X1359607Y1006185D02*
X1362301Y1003491D01*
X1358709Y999899D01*
X1356015Y1002593D01*
X1359607Y1006185D01*
G37*
D14*
X1366970Y1014268D02*
X1373262Y1020559D01*
X1370116Y1023705D01*
X1368019Y1023705D01*
X1365922Y1021608D01*
X1365922Y1019511D01*
X1369068Y1016365D01*
X1366970Y1018462D02*
X1362776Y1018462D01*
X1364715Y1024912D02*
X1364715Y1029106D01*
X1358424Y1022815D01*
X1360521Y1020717D02*
X1356326Y1024912D01*
D10*
X1097925Y505079D02*
X1086485Y505079D01*
X1086485Y512706D01*
X1097925Y516773D02*
X1097925Y524399D01*
X1097925Y516773D02*
X1086485Y516773D01*
X1086485Y524399D01*
X1092205Y520586D02*
X1092205Y516773D01*
X1097925Y528467D02*
X1086485Y528467D01*
X1086485Y534187D01*
X1088392Y536093D01*
X1096018Y536093D01*
X1097925Y534187D01*
X1097925Y528467D01*
X1149985Y505079D02*
X1161425Y505079D01*
X1149985Y505079D02*
X1149985Y512706D01*
X1161425Y516773D02*
X1161425Y524399D01*
X1161425Y516773D02*
X1149985Y516773D01*
X1149985Y524399D01*
X1155705Y520586D02*
X1155705Y516773D01*
X1161425Y528467D02*
X1149985Y528467D01*
X1149985Y534187D01*
X1151892Y536093D01*
X1159518Y536093D01*
X1161425Y534187D01*
X1161425Y528467D01*
X1207135Y505079D02*
X1218575Y505079D01*
X1207135Y505079D02*
X1207135Y512706D01*
X1218575Y516773D02*
X1218575Y524399D01*
X1218575Y516773D02*
X1207135Y516773D01*
X1207135Y524399D01*
X1212855Y520586D02*
X1212855Y516773D01*
X1218575Y528467D02*
X1207135Y528467D01*
X1207135Y534187D01*
X1209042Y536093D01*
X1216668Y536093D01*
X1218575Y534187D01*
X1218575Y528467D01*
X1353185Y498729D02*
X1364625Y498729D01*
X1353185Y498729D02*
X1353185Y506356D01*
X1364625Y510423D02*
X1364625Y518049D01*
X1364625Y510423D02*
X1353185Y510423D01*
X1353185Y518049D01*
X1358905Y514236D02*
X1358905Y510423D01*
X1364625Y522117D02*
X1353185Y522117D01*
X1353185Y527837D01*
X1355092Y529743D01*
X1362718Y529743D01*
X1364625Y527837D01*
X1364625Y522117D01*
D17*
X1419225Y1148080D02*
X1419225Y1160780D01*
X1412875Y1167130D01*
X1400175Y1167130D02*
X1393825Y1160780D01*
X1412875Y1167130D02*
X1419225Y1173480D01*
X1419225Y1186180D01*
X1412875Y1192530D01*
X1400175Y1192530D02*
X1393825Y1186180D01*
X1393825Y1173480D01*
X1400175Y1167130D01*
X1400175Y1141730D02*
X1412875Y1141730D01*
X1419225Y1148080D01*
X1400175Y1141730D02*
X1393825Y1148080D01*
X1393825Y1160780D01*
X1400175Y1192530D02*
X1412875Y1192530D01*
X120980Y390325D02*
X67580Y390325D01*
X67580Y82325D02*
X120980Y82325D01*
X120980Y390325D01*
X1223100Y1209300D02*
X1223100Y1214800D01*
X1219600Y1214800D01*
X1219600Y1224800D01*
X1223100Y1224800D01*
X1223100Y1269800D01*
X1219600Y1269800D01*
X1219600Y1289800D01*
X1223100Y1289800D01*
X1223100Y1309800D01*
X1219600Y1309800D01*
X1219600Y1319800D01*
X1223100Y1319800D01*
X1223100Y1328300D01*
X1390600Y1328300D01*
X1390600Y1319800D01*
X1390600Y1309800D02*
X1390600Y1294800D01*
X1390600Y1289800D01*
X1390600Y1269800D02*
X1390600Y1224800D01*
X1390600Y1214800D02*
X1390600Y1209300D01*
X1223100Y1209300D01*
X1233100Y1209800D02*
X1233100Y1327300D01*
X1223100Y1294800D02*
X1390600Y1294800D01*
X1258100Y1327300D02*
X1258100Y1209800D01*
X1283100Y1209800D02*
X1283100Y1327300D01*
X1308100Y1327300D02*
X1308100Y1209800D01*
X1333100Y1209800D02*
X1333100Y1327300D01*
X1358100Y1327300D02*
X1358100Y1209800D01*
X1383100Y1209800D02*
X1383100Y1327300D01*
X1240600Y1314800D02*
X1240600Y1299800D01*
X1240600Y1314800D02*
X1250600Y1314800D01*
X1250600Y1299800D01*
X1240600Y1299800D01*
X1387100Y1214800D02*
X1390600Y1214800D01*
X1387100Y1214800D02*
X1387100Y1224800D01*
X1390600Y1224800D01*
X1390600Y1269800D02*
X1387100Y1269800D01*
X1387100Y1289800D01*
X1390600Y1289800D01*
X1390600Y1309800D02*
X1387100Y1309800D01*
X1387100Y1319800D01*
X1390600Y1319800D01*
X1265600Y1314800D02*
X1265600Y1299800D01*
X1265600Y1314800D02*
X1275600Y1314800D01*
X1275600Y1299800D01*
X1265600Y1299800D01*
X1290600Y1299800D02*
X1290600Y1314800D01*
X1300600Y1314800D01*
X1300600Y1299800D01*
X1290600Y1299800D01*
X1315600Y1299800D02*
X1315600Y1314800D01*
X1325600Y1314800D01*
X1325600Y1299800D01*
X1315600Y1299800D01*
X1340600Y1299800D02*
X1340600Y1314800D01*
X1350600Y1314800D01*
X1350600Y1299800D01*
X1340600Y1299800D01*
X1365600Y1299800D02*
X1365600Y1314800D01*
X1375600Y1314800D01*
X1375600Y1299800D01*
X1365600Y1299800D01*
D11*
X1251203Y1322968D02*
X1248746Y1325425D01*
X1248746Y1318053D01*
X1251203Y1318053D02*
X1246288Y1318053D01*
X1343788Y1325425D02*
X1348703Y1325425D01*
X1348703Y1321739D01*
X1346246Y1322968D01*
X1345017Y1322968D01*
X1343788Y1321739D01*
X1343788Y1319282D01*
X1345017Y1318053D01*
X1347474Y1318053D01*
X1348703Y1319282D01*
D10*
X1108075Y1295400D02*
X1012825Y1295400D01*
X1108075Y1295400D02*
X1108075Y1200150D01*
X1012825Y1200150D01*
X1012825Y1295400D01*
X1027430Y1247775D02*
X1027440Y1248585D01*
X1027470Y1249395D01*
X1027519Y1250204D01*
X1027589Y1251012D01*
X1027678Y1251817D01*
X1027787Y1252620D01*
X1027916Y1253420D01*
X1028064Y1254217D01*
X1028232Y1255010D01*
X1028420Y1255798D01*
X1028626Y1256582D01*
X1028852Y1257360D01*
X1029097Y1258133D01*
X1029360Y1258899D01*
X1029643Y1259659D01*
X1029943Y1260411D01*
X1030263Y1261156D01*
X1030600Y1261893D01*
X1030956Y1262621D01*
X1031329Y1263341D01*
X1031720Y1264050D01*
X1032128Y1264751D01*
X1032553Y1265441D01*
X1032995Y1266120D01*
X1033453Y1266788D01*
X1033928Y1267445D01*
X1034419Y1268090D01*
X1034925Y1268723D01*
X1035447Y1269343D01*
X1035984Y1269950D01*
X1036535Y1270544D01*
X1037101Y1271124D01*
X1037681Y1271690D01*
X1038275Y1272241D01*
X1038882Y1272778D01*
X1039502Y1273300D01*
X1040135Y1273806D01*
X1040780Y1274297D01*
X1041437Y1274772D01*
X1042105Y1275230D01*
X1042784Y1275672D01*
X1043474Y1276097D01*
X1044175Y1276505D01*
X1044884Y1276896D01*
X1045604Y1277269D01*
X1046332Y1277625D01*
X1047069Y1277962D01*
X1047814Y1278282D01*
X1048566Y1278582D01*
X1049326Y1278865D01*
X1050092Y1279128D01*
X1050865Y1279373D01*
X1051643Y1279599D01*
X1052427Y1279805D01*
X1053215Y1279993D01*
X1054008Y1280161D01*
X1054805Y1280309D01*
X1055605Y1280438D01*
X1056408Y1280547D01*
X1057213Y1280636D01*
X1058021Y1280706D01*
X1058830Y1280755D01*
X1059640Y1280785D01*
X1060450Y1280795D01*
X1061260Y1280785D01*
X1062070Y1280755D01*
X1062879Y1280706D01*
X1063687Y1280636D01*
X1064492Y1280547D01*
X1065295Y1280438D01*
X1066095Y1280309D01*
X1066892Y1280161D01*
X1067685Y1279993D01*
X1068473Y1279805D01*
X1069257Y1279599D01*
X1070035Y1279373D01*
X1070808Y1279128D01*
X1071574Y1278865D01*
X1072334Y1278582D01*
X1073086Y1278282D01*
X1073831Y1277962D01*
X1074568Y1277625D01*
X1075296Y1277269D01*
X1076016Y1276896D01*
X1076725Y1276505D01*
X1077426Y1276097D01*
X1078116Y1275672D01*
X1078795Y1275230D01*
X1079463Y1274772D01*
X1080120Y1274297D01*
X1080765Y1273806D01*
X1081398Y1273300D01*
X1082018Y1272778D01*
X1082625Y1272241D01*
X1083219Y1271690D01*
X1083799Y1271124D01*
X1084365Y1270544D01*
X1084916Y1269950D01*
X1085453Y1269343D01*
X1085975Y1268723D01*
X1086481Y1268090D01*
X1086972Y1267445D01*
X1087447Y1266788D01*
X1087905Y1266120D01*
X1088347Y1265441D01*
X1088772Y1264751D01*
X1089180Y1264050D01*
X1089571Y1263341D01*
X1089944Y1262621D01*
X1090300Y1261893D01*
X1090637Y1261156D01*
X1090957Y1260411D01*
X1091257Y1259659D01*
X1091540Y1258899D01*
X1091803Y1258133D01*
X1092048Y1257360D01*
X1092274Y1256582D01*
X1092480Y1255798D01*
X1092668Y1255010D01*
X1092836Y1254217D01*
X1092984Y1253420D01*
X1093113Y1252620D01*
X1093222Y1251817D01*
X1093311Y1251012D01*
X1093381Y1250204D01*
X1093430Y1249395D01*
X1093460Y1248585D01*
X1093470Y1247775D01*
X1093460Y1246965D01*
X1093430Y1246155D01*
X1093381Y1245346D01*
X1093311Y1244538D01*
X1093222Y1243733D01*
X1093113Y1242930D01*
X1092984Y1242130D01*
X1092836Y1241333D01*
X1092668Y1240540D01*
X1092480Y1239752D01*
X1092274Y1238968D01*
X1092048Y1238190D01*
X1091803Y1237417D01*
X1091540Y1236651D01*
X1091257Y1235891D01*
X1090957Y1235139D01*
X1090637Y1234394D01*
X1090300Y1233657D01*
X1089944Y1232929D01*
X1089571Y1232209D01*
X1089180Y1231500D01*
X1088772Y1230799D01*
X1088347Y1230109D01*
X1087905Y1229430D01*
X1087447Y1228762D01*
X1086972Y1228105D01*
X1086481Y1227460D01*
X1085975Y1226827D01*
X1085453Y1226207D01*
X1084916Y1225600D01*
X1084365Y1225006D01*
X1083799Y1224426D01*
X1083219Y1223860D01*
X1082625Y1223309D01*
X1082018Y1222772D01*
X1081398Y1222250D01*
X1080765Y1221744D01*
X1080120Y1221253D01*
X1079463Y1220778D01*
X1078795Y1220320D01*
X1078116Y1219878D01*
X1077426Y1219453D01*
X1076725Y1219045D01*
X1076016Y1218654D01*
X1075296Y1218281D01*
X1074568Y1217925D01*
X1073831Y1217588D01*
X1073086Y1217268D01*
X1072334Y1216968D01*
X1071574Y1216685D01*
X1070808Y1216422D01*
X1070035Y1216177D01*
X1069257Y1215951D01*
X1068473Y1215745D01*
X1067685Y1215557D01*
X1066892Y1215389D01*
X1066095Y1215241D01*
X1065295Y1215112D01*
X1064492Y1215003D01*
X1063687Y1214914D01*
X1062879Y1214844D01*
X1062070Y1214795D01*
X1061260Y1214765D01*
X1060450Y1214755D01*
X1059640Y1214765D01*
X1058830Y1214795D01*
X1058021Y1214844D01*
X1057213Y1214914D01*
X1056408Y1215003D01*
X1055605Y1215112D01*
X1054805Y1215241D01*
X1054008Y1215389D01*
X1053215Y1215557D01*
X1052427Y1215745D01*
X1051643Y1215951D01*
X1050865Y1216177D01*
X1050092Y1216422D01*
X1049326Y1216685D01*
X1048566Y1216968D01*
X1047814Y1217268D01*
X1047069Y1217588D01*
X1046332Y1217925D01*
X1045604Y1218281D01*
X1044884Y1218654D01*
X1044175Y1219045D01*
X1043474Y1219453D01*
X1042784Y1219878D01*
X1042105Y1220320D01*
X1041437Y1220778D01*
X1040780Y1221253D01*
X1040135Y1221744D01*
X1039502Y1222250D01*
X1038882Y1222772D01*
X1038275Y1223309D01*
X1037681Y1223860D01*
X1037101Y1224426D01*
X1036535Y1225006D01*
X1035984Y1225600D01*
X1035447Y1226207D01*
X1034925Y1226827D01*
X1034419Y1227460D01*
X1033928Y1228105D01*
X1033453Y1228762D01*
X1032995Y1229430D01*
X1032553Y1230109D01*
X1032128Y1230799D01*
X1031720Y1231500D01*
X1031329Y1232209D01*
X1030956Y1232929D01*
X1030600Y1233657D01*
X1030263Y1234394D01*
X1029943Y1235139D01*
X1029643Y1235891D01*
X1029360Y1236651D01*
X1029097Y1237417D01*
X1028852Y1238190D01*
X1028626Y1238968D01*
X1028420Y1239752D01*
X1028232Y1240540D01*
X1028064Y1241333D01*
X1027916Y1242130D01*
X1027787Y1242930D01*
X1027678Y1243733D01*
X1027589Y1244538D01*
X1027519Y1245346D01*
X1027470Y1246155D01*
X1027440Y1246965D01*
X1027430Y1247775D01*
X474345Y657860D02*
X360045Y657860D01*
X360045Y572770D02*
X474345Y572770D01*
X360045Y572770D02*
X360045Y657860D01*
X474345Y657860D02*
X474345Y572770D01*
D11*
X393834Y626623D02*
X390911Y629546D01*
X390911Y620776D01*
X393834Y620776D02*
X387988Y620776D01*
X414658Y620776D02*
X420504Y620776D01*
X414658Y626623D01*
X414658Y628085D01*
X416119Y629546D01*
X419043Y629546D01*
X420504Y628085D01*
X445713Y629546D02*
X447174Y628085D01*
X445713Y629546D02*
X442789Y629546D01*
X441328Y628085D01*
X441328Y626623D01*
X442789Y625161D01*
X444251Y625161D01*
X442789Y625161D02*
X441328Y623699D01*
X441328Y622238D01*
X442789Y620776D01*
X445713Y620776D01*
X447174Y622238D01*
X451682Y646983D02*
X451682Y652406D01*
X451682Y646983D02*
X448970Y644271D01*
X446259Y646983D01*
X446259Y652406D01*
X443496Y652406D02*
X438073Y652406D01*
X438073Y651050D01*
X443496Y645627D01*
X443496Y644271D01*
X435310Y651050D02*
X433955Y652406D01*
X431243Y652406D01*
X429887Y651050D01*
X429887Y649694D01*
X431243Y648338D01*
X429887Y646983D01*
X429887Y645627D01*
X431243Y644271D01*
X433955Y644271D01*
X435310Y645627D01*
X435310Y646983D01*
X433955Y648338D01*
X435310Y649694D01*
X435310Y651050D01*
X433955Y648338D02*
X431243Y648338D01*
X427125Y652406D02*
X421701Y644271D01*
X427125Y644271D02*
X421701Y652406D01*
X418939Y652406D02*
X413516Y644271D01*
X418939Y644271D02*
X413516Y652406D01*
X410753Y648338D02*
X405330Y648338D01*
X402567Y649694D02*
X399856Y652406D01*
X399856Y644271D01*
X402567Y644271D02*
X397144Y644271D01*
X394381Y645627D02*
X394381Y651050D01*
X393026Y652406D01*
X390314Y652406D01*
X388958Y651050D01*
X388958Y645627D01*
X390314Y644271D01*
X393026Y644271D01*
X394381Y645627D01*
X388958Y651050D01*
X386196Y651050D02*
X386196Y645627D01*
X386196Y651050D02*
X384840Y652406D01*
X382128Y652406D01*
X380772Y651050D01*
X380772Y645627D01*
X382128Y644271D01*
X384840Y644271D01*
X386196Y645627D01*
X380772Y651050D01*
X378010Y651050D02*
X378010Y645627D01*
X378010Y651050D02*
X376654Y652406D01*
X373942Y652406D01*
X372587Y651050D01*
X372587Y645627D01*
X373942Y644271D01*
X376654Y644271D01*
X378010Y645627D01*
X372587Y651050D01*
D14*
X1110063Y51572D02*
X1112012Y49623D01*
X1110063Y51572D02*
X1106165Y51572D01*
X1104216Y49623D01*
X1104216Y47674D01*
X1106165Y45725D01*
X1108114Y45725D01*
X1106165Y45725D02*
X1104216Y43776D01*
X1104216Y41827D01*
X1106165Y39878D01*
X1110063Y39878D01*
X1112012Y41827D01*
X1100318Y41827D02*
X1100318Y49623D01*
X1098369Y51572D01*
X1094471Y51572D01*
X1092522Y49623D01*
X1092522Y41827D01*
X1094471Y39878D01*
X1098369Y39878D01*
X1100318Y41827D01*
X1092522Y49623D01*
X1088624Y49623D02*
X1088624Y41827D01*
X1088624Y49623D02*
X1086675Y51572D01*
X1082777Y51572D01*
X1080828Y49623D01*
X1080828Y41827D01*
X1082777Y39878D01*
X1086675Y39878D01*
X1088624Y41827D01*
X1080828Y49623D01*
X1376773Y132588D02*
X1378722Y134537D01*
X1378722Y138435D01*
X1376773Y140384D01*
X1374824Y140384D01*
X1372875Y138435D01*
X1372875Y136486D01*
X1372875Y138435D02*
X1370926Y140384D01*
X1368977Y140384D01*
X1367028Y138435D01*
X1367028Y134537D01*
X1368977Y132588D01*
X1368977Y144282D02*
X1376773Y144282D01*
X1378722Y146231D01*
X1378722Y150129D01*
X1376773Y152078D01*
X1368977Y152078D01*
X1367028Y150129D01*
X1367028Y146231D01*
X1368977Y144282D01*
X1376773Y152078D01*
X1376773Y155976D02*
X1368977Y155976D01*
X1376773Y155976D02*
X1378722Y157925D01*
X1378722Y161823D01*
X1376773Y163772D01*
X1368977Y163772D01*
X1367028Y161823D01*
X1367028Y157925D01*
X1368977Y155976D01*
X1376773Y163772D01*
X922304Y167733D02*
X920355Y169682D01*
X916457Y169682D01*
X914508Y167733D01*
X914508Y165784D01*
X916457Y163835D01*
X918406Y163835D01*
X916457Y163835D02*
X914508Y161886D01*
X914508Y159937D01*
X916457Y157988D01*
X920355Y157988D01*
X922304Y159937D01*
X910610Y159937D02*
X910610Y167733D01*
X908661Y169682D01*
X904763Y169682D01*
X902814Y167733D01*
X902814Y159937D01*
X904763Y157988D01*
X908661Y157988D01*
X910610Y159937D01*
X902814Y167733D01*
X898916Y167733D02*
X898916Y159937D01*
X898916Y167733D02*
X896967Y169682D01*
X893069Y169682D01*
X891120Y167733D01*
X891120Y159937D01*
X893069Y157988D01*
X896967Y157988D01*
X898916Y159937D01*
X891120Y167733D01*
X1263255Y74432D02*
X1265204Y72483D01*
X1263255Y74432D02*
X1259357Y74432D01*
X1257408Y72483D01*
X1257408Y70534D01*
X1259357Y68585D01*
X1261306Y68585D01*
X1259357Y68585D02*
X1257408Y66636D01*
X1257408Y64687D01*
X1259357Y62738D01*
X1263255Y62738D01*
X1265204Y64687D01*
X1253510Y64687D02*
X1253510Y72483D01*
X1251561Y74432D01*
X1247663Y74432D01*
X1245714Y72483D01*
X1245714Y64687D01*
X1247663Y62738D01*
X1251561Y62738D01*
X1253510Y64687D01*
X1245714Y72483D01*
X1241816Y72483D02*
X1241816Y64687D01*
X1241816Y72483D02*
X1239867Y74432D01*
X1235969Y74432D01*
X1234020Y72483D01*
X1234020Y64687D01*
X1235969Y62738D01*
X1239867Y62738D01*
X1241816Y64687D01*
X1234020Y72483D01*
X1169954Y1298033D02*
X1168005Y1299982D01*
X1164107Y1299982D01*
X1162158Y1298033D01*
X1162158Y1296084D01*
X1164107Y1294135D01*
X1166056Y1294135D01*
X1164107Y1294135D02*
X1162158Y1292186D01*
X1162158Y1290237D01*
X1164107Y1288288D01*
X1168005Y1288288D01*
X1169954Y1290237D01*
X1158260Y1290237D02*
X1158260Y1298033D01*
X1156311Y1299982D01*
X1152413Y1299982D01*
X1150464Y1298033D01*
X1150464Y1290237D01*
X1152413Y1288288D01*
X1156311Y1288288D01*
X1158260Y1290237D01*
X1150464Y1298033D01*
X1146566Y1298033D02*
X1146566Y1290237D01*
X1146566Y1298033D02*
X1144617Y1299982D01*
X1140719Y1299982D01*
X1138770Y1298033D01*
X1138770Y1290237D01*
X1140719Y1288288D01*
X1144617Y1288288D01*
X1146566Y1290237D01*
X1138770Y1298033D01*
X1212455Y1109482D02*
X1214404Y1107533D01*
X1212455Y1109482D02*
X1208557Y1109482D01*
X1206608Y1107533D01*
X1206608Y1105584D01*
X1208557Y1103635D01*
X1210506Y1103635D01*
X1208557Y1103635D02*
X1206608Y1101686D01*
X1206608Y1099737D01*
X1208557Y1097788D01*
X1212455Y1097788D01*
X1214404Y1099737D01*
X1202710Y1099737D02*
X1202710Y1107533D01*
X1200761Y1109482D01*
X1196863Y1109482D01*
X1194914Y1107533D01*
X1194914Y1099737D01*
X1196863Y1097788D01*
X1200761Y1097788D01*
X1202710Y1099737D01*
X1194914Y1107533D01*
X1191016Y1107533D02*
X1191016Y1099737D01*
X1191016Y1107533D02*
X1189067Y1109482D01*
X1185169Y1109482D01*
X1183220Y1107533D01*
X1183220Y1099737D01*
X1185169Y1097788D01*
X1189067Y1097788D01*
X1191016Y1099737D01*
X1183220Y1107533D01*
X1214404Y1139283D02*
X1212455Y1141232D01*
X1208557Y1141232D01*
X1206608Y1139283D01*
X1206608Y1137334D01*
X1208557Y1135385D01*
X1210506Y1135385D01*
X1208557Y1135385D02*
X1206608Y1133436D01*
X1206608Y1131487D01*
X1208557Y1129538D01*
X1212455Y1129538D01*
X1214404Y1131487D01*
X1202710Y1131487D02*
X1202710Y1139283D01*
X1200761Y1141232D01*
X1196863Y1141232D01*
X1194914Y1139283D01*
X1194914Y1131487D01*
X1196863Y1129538D01*
X1200761Y1129538D01*
X1202710Y1131487D01*
X1194914Y1139283D01*
X1191016Y1139283D02*
X1191016Y1131487D01*
X1191016Y1139283D02*
X1189067Y1141232D01*
X1185169Y1141232D01*
X1183220Y1139283D01*
X1183220Y1131487D01*
X1185169Y1129538D01*
X1189067Y1129538D01*
X1191016Y1131487D01*
X1183220Y1139283D01*
X1212455Y1077732D02*
X1214404Y1075783D01*
X1212455Y1077732D02*
X1208557Y1077732D01*
X1206608Y1075783D01*
X1206608Y1073834D01*
X1208557Y1071885D01*
X1210506Y1071885D01*
X1208557Y1071885D02*
X1206608Y1069936D01*
X1206608Y1067987D01*
X1208557Y1066038D01*
X1212455Y1066038D01*
X1214404Y1067987D01*
X1202710Y1067987D02*
X1202710Y1075783D01*
X1200761Y1077732D01*
X1196863Y1077732D01*
X1194914Y1075783D01*
X1194914Y1067987D01*
X1196863Y1066038D01*
X1200761Y1066038D01*
X1202710Y1067987D01*
X1194914Y1075783D01*
X1191016Y1075783D02*
X1191016Y1067987D01*
X1191016Y1075783D02*
X1189067Y1077732D01*
X1185169Y1077732D01*
X1183220Y1075783D01*
X1183220Y1067987D01*
X1185169Y1066038D01*
X1189067Y1066038D01*
X1191016Y1067987D01*
X1183220Y1075783D01*
D17*
X1270Y1220650D02*
X1270Y1306650D01*
X1270Y1220650D02*
X146950Y1220650D01*
X146950Y1236650D01*
X146950Y1290650D02*
X146950Y1306650D01*
X83450Y1306650D02*
X1270Y1306650D01*
X130950Y1306650D02*
X146950Y1306650D01*
X368046Y1211834D02*
X427990Y1211830D01*
X427990Y1277370D01*
X368046Y1277366D01*
D19*
X432816Y1244600D03*
D14*
X525209Y1279398D02*
X533005Y1279398D01*
X525209Y1287194D01*
X525209Y1289143D01*
X527158Y1291092D01*
X531056Y1291092D01*
X533005Y1289143D01*
X521311Y1289143D02*
X521311Y1281347D01*
X521311Y1289143D02*
X519362Y1291092D01*
X515464Y1291092D01*
X513515Y1289143D01*
X513515Y1281347D01*
X515464Y1279398D01*
X519362Y1279398D01*
X521311Y1281347D01*
X513515Y1289143D01*
X509617Y1291092D02*
X509617Y1279398D01*
X509617Y1283296D02*
X503770Y1279398D01*
X509617Y1283296D02*
X503770Y1287194D01*
M02*
