G04 EAGLE Gerber RS-274X export*
G75*
%MOMM*%
%FSLAX34Y34*%
%LPD*%
%INSoldermask Top*%
%IPPOS*%
%AMOC8*
5,1,8,0,0,1.08239X$1,22.5*%
G01*
%ADD10C,3.149600*%
%ADD11C,1.981200*%
%ADD12P,2.144431X8X202.500000*%
%ADD13C,1.601600*%
%ADD14P,1.319650X8X157.500000*%
%ADD15C,1.524000*%
%ADD16P,1.924489X8X202.500000*%
%ADD17C,1.219200*%
%ADD18R,1.981200X1.981200*%
%ADD19C,5.181600*%
%ADD20C,1.606400*%
%ADD21C,1.879600*%
%ADD22C,1.422400*%
%ADD23R,3.001600X1.601600*%
%ADD24C,1.701800*%
%ADD25R,1.701600X1.901600*%
%ADD26P,1.924489X8X22.500000*%
%ADD27R,1.901600X1.701600*%
%ADD28C,4.419600*%
%ADD29C,2.260600*%
%ADD30R,1.426400X1.426400*%
%ADD31C,1.426400*%
%ADD32C,1.901600*%
%ADD33C,4.601600*%
%ADD34P,1.842011X8X202.500000*%
%ADD35C,1.701800*%
%ADD36P,1.842011X8X22.500000*%


D10*
X1454150Y351790D03*
X905510Y1281430D03*
X905510Y351790D03*
X1454150Y1281430D03*
X1543050Y34290D03*
X739775Y127000D03*
X273050Y669290D03*
X34290Y34290D03*
X273050Y1304290D03*
X739775Y1304290D03*
X1543050Y1304290D03*
X739775Y466090D03*
X939800Y669290D03*
X571500Y673100D03*
X1444625Y669290D03*
D11*
X222885Y592455D03*
X222885Y567055D03*
X1314450Y825500D03*
X1314450Y850900D03*
X1314450Y876300D03*
X1314450Y901700D03*
X1314450Y927100D03*
X1314450Y952500D03*
X1314450Y977900D03*
X1314450Y800100D03*
X831850Y774700D03*
X831850Y800100D03*
X831850Y825500D03*
X831850Y850900D03*
X831850Y876300D03*
X831850Y901700D03*
X831850Y927100D03*
X831850Y749300D03*
X1314450Y596900D03*
X1314450Y622300D03*
X1314450Y647700D03*
X1314450Y673100D03*
X1314450Y698500D03*
X1314450Y723900D03*
X1314450Y749300D03*
X1314450Y571500D03*
X831850Y546100D03*
X831850Y571500D03*
X831850Y596900D03*
X831850Y622300D03*
X831850Y647700D03*
X831850Y673100D03*
X831850Y698500D03*
X831850Y520700D03*
X831850Y327660D03*
X831850Y353060D03*
X831850Y378460D03*
X831850Y403860D03*
X831850Y429260D03*
X831850Y454660D03*
X831850Y480060D03*
X831850Y302260D03*
D12*
X1035050Y1028700D03*
X1035050Y1003300D03*
X1009650Y1028700D03*
X1009650Y1003300D03*
X984250Y1028700D03*
X984250Y1003300D03*
X958850Y1028700D03*
X958850Y1003300D03*
X933450Y1028700D03*
X933450Y1003300D03*
X908050Y1028700D03*
X908050Y1003300D03*
X882650Y1028700D03*
X882650Y1003300D03*
X857250Y1028700D03*
X857250Y1003300D03*
X1238250Y1028700D03*
X1238250Y1003300D03*
X1212850Y1028700D03*
X1212850Y1003300D03*
X1187450Y1028700D03*
X1187450Y1003300D03*
X1162050Y1028700D03*
X1162050Y1003300D03*
X1136650Y1028700D03*
X1136650Y1003300D03*
X1111250Y1028700D03*
X1111250Y1003300D03*
X1085850Y1028700D03*
X1085850Y1003300D03*
X1060450Y1028700D03*
X1060450Y1003300D03*
D11*
X1263650Y1003300D03*
X1263650Y1028700D03*
X831850Y1003300D03*
X831850Y1028700D03*
X1314450Y393700D03*
X1314450Y419100D03*
X1314450Y444500D03*
X1314450Y469900D03*
X1314450Y495300D03*
X1314450Y520700D03*
X831850Y276860D03*
X831850Y251460D03*
X1314450Y368300D03*
X1314450Y342900D03*
D12*
X1085850Y723900D03*
X1085850Y698500D03*
X1060450Y723900D03*
X1060450Y698500D03*
X1035050Y723900D03*
X1035050Y698500D03*
D11*
X673100Y368300D03*
X673100Y342900D03*
X673100Y317500D03*
X673100Y292100D03*
X673100Y266700D03*
X673100Y241300D03*
X673100Y190500D03*
X673100Y165100D03*
X673100Y139700D03*
X673100Y114300D03*
X673100Y88900D03*
X673100Y63500D03*
X190500Y63500D03*
X190500Y88900D03*
X190500Y114300D03*
X190500Y139700D03*
X190500Y165100D03*
X190500Y190500D03*
X190500Y215900D03*
X190500Y241300D03*
X190500Y279400D03*
X190500Y304800D03*
X190500Y330200D03*
X190500Y355600D03*
X190500Y381000D03*
X190500Y406400D03*
X190500Y431800D03*
X190500Y457200D03*
D13*
X1035150Y850900D03*
X1085750Y850900D03*
D14*
X1366791Y995409D03*
X1312909Y1049291D03*
D11*
X1455420Y1205230D03*
X1452880Y1179830D03*
X1455420Y1154430D03*
X1452880Y1129030D03*
X1455420Y1103630D03*
X1452880Y1078230D03*
X1455420Y1052830D03*
X1452880Y1027430D03*
X1455420Y1002030D03*
X1452880Y976630D03*
X1455420Y951230D03*
X1452880Y925830D03*
X1455420Y900430D03*
X1452880Y875030D03*
X1455420Y849630D03*
X1452880Y824230D03*
D15*
X914400Y102362D02*
X914400Y88138D01*
X889480Y88138D02*
X889480Y102362D01*
D10*
X965162Y145504D03*
X863511Y44234D03*
D15*
X1231900Y88138D02*
X1231900Y102362D01*
X1206980Y102362D02*
X1206980Y88138D01*
D10*
X1282662Y145504D03*
X1181011Y44234D03*
D15*
X1390650Y88138D02*
X1390650Y102362D01*
X1365730Y102362D02*
X1365730Y88138D01*
D10*
X1441412Y145504D03*
X1339761Y44234D03*
D15*
X1073150Y88138D02*
X1073150Y102362D01*
X1048230Y102362D02*
X1048230Y88138D01*
D10*
X1123912Y145504D03*
X1022261Y44234D03*
D16*
X914400Y215900D03*
X889000Y215900D03*
X1073150Y215900D03*
X1047750Y215900D03*
X1231900Y215900D03*
X1206500Y215900D03*
X1390650Y215900D03*
X1365250Y215900D03*
D11*
X1406525Y1152652D03*
X1406525Y1181608D03*
X343300Y57150D03*
X393300Y57150D03*
X432200Y57150D03*
X482200Y57150D03*
D17*
X368300Y115062D02*
X368300Y126238D01*
X393700Y126238D02*
X393700Y115062D01*
X419100Y115062D02*
X419100Y126238D01*
X444500Y126238D02*
X444500Y115062D01*
X469900Y115062D02*
X469900Y126238D01*
X495300Y126238D02*
X495300Y115062D01*
X520700Y115062D02*
X520700Y126238D01*
X546100Y126238D02*
X546100Y115062D01*
X546100Y191262D02*
X546100Y202438D01*
X520700Y202438D02*
X520700Y191262D01*
X495300Y191262D02*
X495300Y202438D01*
X469900Y202438D02*
X469900Y191262D01*
X444500Y191262D02*
X444500Y202438D01*
X419100Y202438D02*
X419100Y191262D01*
X393700Y191262D02*
X393700Y202438D01*
X368300Y202438D02*
X368300Y191262D01*
D11*
X571100Y57150D03*
X521100Y57150D03*
X317100Y158750D03*
X267100Y158750D03*
D18*
X107180Y291725D03*
D11*
X107180Y264025D03*
X107180Y236325D03*
X107180Y208625D03*
X107180Y180925D03*
X78780Y277825D03*
X78780Y250125D03*
X78780Y222525D03*
X78780Y194825D03*
D19*
X92980Y361325D03*
X92980Y111325D03*
D20*
X1245600Y1224776D02*
X1245600Y1239824D01*
X1245600Y1274776D02*
X1245600Y1289824D01*
X1270600Y1239824D02*
X1270600Y1224776D01*
X1270600Y1274776D02*
X1270600Y1289824D01*
X1295600Y1239824D02*
X1295600Y1224776D01*
X1295600Y1274776D02*
X1295600Y1289824D01*
X1320600Y1239824D02*
X1320600Y1224776D01*
X1320600Y1274776D02*
X1320600Y1289824D01*
X1345600Y1239824D02*
X1345600Y1224776D01*
X1345600Y1274776D02*
X1345600Y1289824D01*
X1370600Y1239824D02*
X1370600Y1224776D01*
X1370600Y1274776D02*
X1370600Y1289824D01*
D21*
X1060450Y1276350D03*
X1035050Y1276350D03*
X1085850Y1276350D03*
D22*
X391795Y600964D02*
X391795Y587756D01*
X417195Y587756D02*
X417195Y600964D01*
X442595Y600964D02*
X442595Y587756D01*
D23*
X447675Y499350D03*
X447675Y529350D03*
X387350Y529350D03*
X387350Y499350D03*
D24*
X1568450Y128651D02*
X1568450Y112649D01*
X1521460Y112649D02*
X1521460Y128651D01*
X1615440Y128651D02*
X1615440Y112649D01*
D11*
X317100Y222250D03*
X267100Y222250D03*
D25*
X1129000Y577850D03*
X1157000Y577850D03*
D26*
X469900Y349250D03*
X495300Y349250D03*
X469900Y273050D03*
X495300Y273050D03*
D27*
X234950Y241905D03*
X234950Y269905D03*
X361950Y241905D03*
X361950Y269905D03*
D28*
X182880Y1263650D02*
X139700Y1263650D01*
X76200Y1263650D02*
X76200Y1220470D01*
X107950Y1311910D02*
X151130Y1311910D01*
D29*
X1630950Y216300D03*
X1630950Y266300D03*
X1505950Y266300D03*
X1505950Y216300D03*
X1630950Y349650D03*
X1630950Y399650D03*
X1505950Y399650D03*
X1505950Y349650D03*
D25*
X1360775Y587375D03*
X1388775Y587375D03*
X1360775Y736600D03*
X1388775Y736600D03*
D30*
X339725Y962025D03*
D31*
X339725Y987425D03*
X339725Y1012825D03*
X339725Y1038225D03*
X339725Y1063625D03*
X339725Y1089025D03*
X339725Y1114425D03*
X339725Y1139825D03*
X212725Y1139825D03*
X212725Y1114425D03*
X212725Y1089025D03*
X212725Y1063625D03*
X212725Y1038225D03*
X212725Y1012825D03*
X212725Y987425D03*
X212725Y962025D03*
D30*
X542925Y962025D03*
D31*
X542925Y987425D03*
X542925Y1012825D03*
X542925Y1038225D03*
X542925Y1063625D03*
X542925Y1089025D03*
X542925Y1114425D03*
X542925Y1139825D03*
X415925Y1139825D03*
X415925Y1114425D03*
X415925Y1089025D03*
X415925Y1063625D03*
X415925Y1038225D03*
X415925Y1012825D03*
X415925Y987425D03*
X415925Y962025D03*
D30*
X339725Y727075D03*
D31*
X339725Y752475D03*
X339725Y777875D03*
X339725Y803275D03*
X339725Y828675D03*
X339725Y854075D03*
X339725Y879475D03*
X339725Y904875D03*
X212725Y904875D03*
X212725Y879475D03*
X212725Y854075D03*
X212725Y828675D03*
X212725Y803275D03*
X212725Y777875D03*
X212725Y752475D03*
X212725Y727075D03*
D30*
X542925Y727075D03*
D31*
X542925Y752475D03*
X542925Y777875D03*
X542925Y803275D03*
X542925Y828675D03*
X542925Y854075D03*
X542925Y879475D03*
X542925Y904875D03*
X415925Y904875D03*
X415925Y879475D03*
X415925Y854075D03*
X415925Y828675D03*
X415925Y803275D03*
X415925Y777875D03*
X415925Y752475D03*
X415925Y727075D03*
D32*
X90000Y1040000D03*
X90000Y1061500D03*
X70500Y1035000D03*
X70500Y1066500D03*
D33*
X75500Y988250D03*
X75500Y1113250D03*
D32*
X90000Y860000D03*
X90000Y881500D03*
X70500Y855000D03*
X70500Y886500D03*
D33*
X75500Y808250D03*
X75500Y933250D03*
D32*
X90000Y680000D03*
X90000Y701500D03*
X70500Y675000D03*
X70500Y706500D03*
D33*
X75500Y628250D03*
X75500Y753250D03*
D32*
X90000Y500000D03*
X90000Y521500D03*
X70500Y495000D03*
X70500Y526500D03*
D33*
X75500Y448250D03*
X75500Y573250D03*
D34*
X179300Y668000D03*
D35*
X204700Y668000D03*
D36*
X616700Y952000D03*
D35*
X591300Y952000D03*
D34*
X143300Y982000D03*
D35*
X168700Y982000D03*
D36*
X496700Y674000D03*
D35*
X471300Y674000D03*
M02*
